<?xml version="1.0" encoding="UTF-8" standalone="no"?>
<!-- Created with Inkscape (http://www.inkscape.org/) -->

<svg
   version="1.1"
   id="svg32"
   width="448"
   height="314.66666"
   viewBox="0 0 448 314.66666"
   sodipodi:docname="Spraypaint_Drips_Free_Vector.svg"
   inkscape:export-filename="Spraypaint_Drips_Free_Vector.eps.svg"
   inkscape:export-xdpi="300"
   inkscape:export-ydpi="300"
   inkscape:version="1.2.2 (b0a8486, 2022-12-01)"
   xmlns:inkscape="http://www.inkscape.org/namespaces/inkscape"
   xmlns:sodipodi="http://sodipodi.sourceforge.net/DTD/sodipodi-0.dtd"
   xmlns="http://www.w3.org/2000/svg"
   xmlns:svg="http://www.w3.org/2000/svg">
  <defs
     id="defs36" />
  <sodipodi:namedview
     id="namedview34"
     pagecolor="#ffffff"
     bordercolor="#000000"
     borderopacity="0.25"
     inkscape:showpageshadow="2"
     inkscape:pageopacity="0.0"
     inkscape:pagecheckerboard="0"
     inkscape:deskcolor="#d1d1d1"
     showgrid="false"
     inkscape:zoom="6.6085427"
     inkscape:cx="189.83005"
     inkscape:cy="255.88092"
     inkscape:window-width="1176"
     inkscape:window-height="770"
     inkscape:window-x="75"
     inkscape:window-y="25"
     inkscape:window-maximized="0"
     inkscape:current-layer="g42" />
  <g
     id="g40"
     inkscape:groupmode="layer"
     inkscape:label="Page 1"
     transform="matrix(1.3333333,0,0,-1.3333333,0,314.66667)"
     style="display:inline">
    <g
       id="g42"
       transform="scale(0.1)"
       style="display:inline">
      <path
         d="m 2688,981.148 c -0.51,0.508 -0.57,0.817 -0.19,0.942 0.37,0.125 0.69,0.437 0.94,0.941 0.51,0 0.89,-0.125 1.14,-0.379 0,-0.5 -0.12,-0.75 -0.37,-0.75 -0.26,0 -0.38,-0.246 -0.38,-0.754 z m -3.04,-35.386 c 0.51,0.246 0.76,0.183 0.76,-0.188 0,-0.383 0.12,-0.695 0.38,-0.945 l -0.76,-1.508 c -0.51,0.25 -0.82,0.625 -0.95,1.129 -0.13,0.5 0.06,1.004 0.57,1.512 z m -1.14,-22.215 c -1.27,0.75 -2.02,1.695 -2.28,2.824 -0.25,1.129 -0.5,2.32 -0.76,3.57 -0.24,2.512 0.76,4.524 3.04,6.032 1.27,0.25 2.4,-0.129 3.42,-1.129 1.01,-1.008 1.77,-2.133 2.28,-3.395 0,-1.25 -0.06,-2.574 -0.2,-3.949 -0.12,-1.383 -0.44,-2.57 -0.94,-3.582 -1.52,-0.746 -3.04,-0.875 -4.56,-0.371 z m -3.41,-11.676 c -0.51,0.504 -0.45,0.945 0.18,1.32 0.64,0.375 1.08,0.063 1.33,-0.937 -0.25,0 -0.38,-0.383 -0.38,-1.133 -0.76,0.25 -1.13,0.5 -1.13,0.75 z m 4.17,49.699 c 0.76,1.004 1.33,1.071 1.71,0.188 0.38,-0.871 0.32,-1.563 -0.19,-2.07 -0.26,-0.25 -0.63,-0.375 -1.14,-0.375 -0.51,0.25 -0.7,0.562 -0.57,0.945 0.13,0.371 0.19,0.812 0.19,1.312 z m 1.52,15.063 c 0,-0.754 -0.26,-1.129 -0.76,-1.129 -0.25,0 -0.38,0.5 -0.38,1.5 0.51,0 0.88,-0.121 1.14,-0.371 z m 3.79,-25.223 -2.65,-1.133 c -0.26,0.75 -0.06,1.133 0.57,1.133 0.63,0 1.2,0.117 1.71,0.375 z m -6.45,70.02 c -0.25,0.25 -0.25,0.51 0,0.76 0.25,0.25 0.63,0.25 1.14,0 0,-0.51 -0.13,-0.88 -0.38,-1.14 z m 2.66,6.03 c -1.27,0 -1.77,0.38 -1.52,1.13 0,1 0.38,1.63 1.14,1.88 1.01,0.51 1.52,0.13 1.52,-1.13 -0.51,-1.25 -0.89,-1.88 -1.14,-1.88 z m -2.66,-12.05 c 0.25,0.5 0.63,0.82 1.14,0.94 0.51,0.13 1.01,0.44 1.52,0.94 0.25,-0.5 0.63,-0.81 1.14,-0.94 0.51,-0.12 0.76,-0.44 0.76,-0.94 -0.25,-0.75 -0.45,-1.44 -0.57,-2.07 -0.13,-0.63 -0.57,-1.07 -1.33,-1.32 -1.27,0.25 -1.96,0.69 -2.09,1.32 -0.12,0.63 -0.32,1.32 -0.57,2.07 z m -0.75,-48.941 c -0.51,0.25 -0.64,0.504 -0.39,0.75 0.25,0.25 0.25,0.625 0,1.133 0.76,0.75 1.52,0.878 2.28,0.371 0,-0.496 -0.25,-0.879 -0.76,-1.121 -0.5,-0.258 -0.89,-0.629 -1.13,-1.133 z m 3.79,76.431 c -0.26,0 -0.51,0.12 -0.76,0.37 -0.25,0.51 -0.19,0.88 0.19,1.14 0.38,0.25 0.7,0.12 0.95,-0.38 0,-0.76 -0.13,-1.13 -0.38,-1.13 z m -0.76,-17.33 c 0.25,-0.25 0.38,-0.62 0.38,-1.12 -0.51,0 -0.89,0.12 -1.14,0.37 z m 7.97,-45.55 c -0.25,-0.254 -0.51,-0.125 -0.76,0.375 0.51,0.253 0.76,0.507 0.76,0.753 0,0.254 0.13,0.125 0.38,-0.375 0.51,-0.5 0.38,-0.753 -0.38,-0.753 z m -316.91,39.16 c -0.51,0 -0.76,0.5 -0.76,1.5 h 1.14 c 0,-1 -0.12,-1.5 -0.38,-1.5 z m 321.46,-80.946 c -0.25,-0.761 -0.75,-1.386 -1.52,-1.89 -0.76,-0.5 -1.45,-0.938 -2.08,-1.317 -0.63,-0.375 -1.14,-0.882 -1.52,-1.507 -0.38,-0.625 -0.44,-1.442 -0.19,-2.442 -0.51,-0.258 -0.82,-0.629 -0.95,-1.137 -0.12,-0.496 -0.57,-0.496 -1.32,0 -0.51,1.508 -0.39,2.645 0.37,3.395 1.27,0.246 2.41,1 3.42,2.258 1.01,1.254 2.27,2.133 3.79,2.64 z m -7.21,13.551 c 0.51,0.5 1.27,0.625 2.28,0.371 -0.51,-0.25 -0.89,-0.308 -1.14,-0.187 -0.25,0.125 -0.63,0.066 -1.14,-0.184 z m -9.11,85.845 -0.38,0.75 c 0,0 0.26,0.12 0.76,0.38 z m 18.22,-35.77 c -0.25,0 -0.51,-0.19 -0.76,-0.57 -0.25,-0.37 -0.63,-0.43 -1.14,-0.18 -0.25,0.5 -0.31,1.12 -0.19,1.87 0.13,0.76 0.45,1.27 0.95,1.51 1.27,0 1.65,-0.88 1.14,-2.63 z m -1.9,-10.544 c 0,0.504 0.19,0.817 0.57,0.942 0.38,0.125 0.7,-0.063 0.96,-0.57 0,-0.5 -0.26,-0.747 -0.77,-0.747 -0.25,-0.253 -0.5,-0.125 -0.76,0.375 z m -1.52,2.637 c -0.25,-0.508 -0.88,-0.754 -1.89,-0.754 -0.76,0.504 -1.01,1 -0.76,1.508 0.25,0.5 0.38,0.996 0.38,1.504 1.26,1.254 2.27,1.629 3.04,1.125 -0.51,-0.5 -0.7,-1.07 -0.57,-1.695 0.12,-0.625 0.06,-1.188 -0.2,-1.688 z m -3.03,6.407 c -0.76,-0.26 -1.2,-0.2 -1.33,0.18 -0.13,0.38 -0.32,0.81 -0.57,1.32 0.25,1 0.89,2.26 1.9,3.77 1.01,0.24 1.52,0 1.52,-0.75 0,-0.76 0,-1.39 0,-1.9 0,-1.25 -0.51,-2.12 -1.52,-2.62 z m -1.52,23.34 c -0.25,0 -0.38,-0.25 -0.38,-0.76 l -0.76,0.38 v 1.13 c 0.76,0 1.14,-0.25 1.14,-0.75 z m -0.76,-32.012 c -0.25,0 -0.5,0.132 -0.75,0.382 -0.26,0.5 -0.14,0.879 0.37,1.129 0.51,0.246 0.89,0.125 1.14,-0.379 -0.25,-0.25 -0.31,-0.5 -0.19,-0.75 0.13,-0.25 -0.06,-0.382 -0.57,-0.382 z m 6.08,8.289 c -0.77,0 -1.14,0.123 -1.14,0.383 0,0.5 0.37,0.75 1.14,0.75 z m -6.83,-22.215 c 0.25,0 0,0.375 -0.77,1.133 0,1 0.26,1.628 0.77,1.878 0.25,0 0.63,-0.25 1.13,-0.753 0.25,-0.5 0.19,-0.879 -0.19,-1.125 -0.38,-0.254 -0.69,-0.629 -0.94,-1.133 z m 3.03,-21.461 c 0.25,0.754 0.76,1 1.52,0.754 0.75,-0.25 1.14,-0.629 1.14,-1.129 -0.51,-0.504 -0.77,-1.004 -0.77,-1.508 0,-0.504 -0.24,-0.875 -0.75,-1.129 -1.27,0.254 -1.65,1.258 -1.14,3.012 z m 2.66,99.019 c 0,0.5 0.12,1.13 0.37,1.88 0.26,0.76 0.64,0.63 1.14,-0.37 0.26,-0.5 0,-1.01 -0.76,-1.51 z m -45.55,-14.68 c 0,0 0,-0.51 0,-1.51 l -1.14,0.38 c 0,0.75 0.38,1.13 1.14,1.13 z m 3.42,-54.222 c -0.26,0 -0.63,0.25 -1.14,0.754 0.51,1.512 1.39,2.012 2.65,1.512 0,-1.004 -0.5,-1.758 -1.51,-2.266 z m -3.04,60.622 c -0.25,-0.25 -0.5,-0.13 -0.76,0.37 0.51,0.25 0.76,0.5 0.76,0.76 0,0.25 0.26,0.25 0.76,0 0,-0.76 -0.26,-1.13 -0.76,-1.13 z m 4.18,-54.595 c -0.51,0.754 -0.13,1.133 1.14,1.133 0,-0.758 -0.13,-1.133 -0.39,-1.133 z m 3.79,-6.406 c -0.25,0.762 -0.12,1.195 0.38,1.324 0.51,0.125 1.01,0.317 1.52,0.567 0,-0.508 -0.13,-0.821 -0.38,-0.942 -0.25,-0.125 -0.51,-0.445 -0.76,-0.949 z m 1.52,80.961 c -0.25,0.5 -0.25,0.81 0,0.93 0.25,0.13 0.51,0.44 0.76,0.95 0.5,0 0.89,-0.13 1.14,-0.38 -0.25,-0.5 -0.32,-0.88 -0.19,-1.13 0.12,-0.25 -0.06,-0.37 -0.58,-0.37 z m -4.56,6.39 c -1.26,0 -1.89,0.13 -1.89,0.38 0.76,0.25 1.01,0.69 0.76,1.32 -0.25,0.62 0.12,0.94 1.13,0.94 0,-0.5 0.14,-1.01 0.39,-1.51 0.25,-0.5 0.12,-0.88 -0.39,-1.13 z m 4.18,-107.679 c -1.26,0.504 -1.26,1.133 0,1.891 h 0.76 v -1.508 c -0.25,0 -0.51,-0.129 -0.76,-0.383 z m 19.36,17.32 c -0.26,0.504 -0.13,0.817 0.37,0.942 0.52,0.129 0.76,-0.059 0.76,-0.563 0,-0.504 -0.12,-0.883 -0.37,-1.133 0,0 -0.26,0.25 -0.76,0.754 z m -145.36,25.599 c 0,0 -0.38,0 -1.14,0 -0.76,0.76 -0.89,1.26 -0.38,1.51 1.26,0 1.77,-0.5 1.52,-1.51 z m -133.98,63.64 c 0,-1.51 -0.88,-2.01 -2.65,-1.51 -0.51,0.75 -0.39,1.51 0.37,2.26 0.51,-0.25 0.89,-0.31 1.14,-0.19 0.26,0.12 0.64,-0.06 1.14,-0.56 z m 135.12,-144.204 c -0.26,0 -0.51,-0.191 -0.76,-0.566 -0.26,-0.379 -0.51,-0.316 -0.76,0.188 0,0.25 0.19,0.5 0.57,0.75 0.38,0.253 0.69,0.125 0.95,-0.372 z m 114.99,40.657 c -0.25,0 -0.5,0.125 -0.76,0.379 -0.25,0.5 -0.18,1.003 0.19,1.507 0.38,0.504 0.83,0.504 1.33,0 0,-1.007 -0.25,-1.632 -0.76,-1.886 z m -82.73,92.617 c -0.26,0 -0.39,0.07 -0.39,0.19 0,0.13 -0.12,0.19 -0.37,0.19 0,0.5 0.19,0.82 0.57,0.94 0.38,0.13 0.56,-0.06 0.56,-0.56 0,-0.25 -0.12,-0.5 -0.37,-0.76 z m -33.02,-396.457 c -1.01,1.762 -1.78,3.519 -2.28,5.277 -0.51,1.754 -1.14,3.512 -1.9,5.27 -0.51,4.515 -0.13,8.968 1.14,13.363 1.26,4.391 4.04,7.59 8.35,9.602 1.26,0.25 2.27,0.066 3.04,-0.567 0.75,-0.625 1.52,-1.316 2.27,-2.066 2.03,-2.766 3.23,-5.649 3.61,-8.66 0.38,-3.016 0.82,-6.149 1.33,-9.418 -0.51,-0.5 -0.57,-1.004 -0.19,-1.504 0.37,-0.504 0.32,-1.129 -0.2,-1.883 -0.5,-3.266 -1.26,-6.336 -2.27,-9.223 -1.01,-2.886 -2.65,-5.461 -4.93,-7.719 -0.76,-2.007 -0.7,-3.832 0.19,-5.457 0.88,-1.632 1.83,-3.261 2.84,-4.894 1.02,-1.633 1.58,-3.203 1.71,-4.711 0.13,-1.504 -1.08,-3.012 -3.61,-4.516 -2.27,-0.504 -4.3,0 -6.07,1.504 -1.26,1.004 -1.83,2.137 -1.7,3.391 0.12,1.254 0.31,2.512 0.56,3.766 0.76,0.503 1.21,1.25 1.33,2.261 0.13,1 0.45,1.879 0.95,2.633 -1.26,2.004 -1.71,4.27 -1.32,6.773 0.37,2.516 -0.57,4.774 -2.85,6.778 z m 131.69,305.344 c 0.76,0 1.27,0.382 1.52,1.132 0.25,0.758 0.44,1.45 0.57,2.075 0.12,0.625 0.32,1.066 0.57,1.308 0.25,0.258 0.89,0 1.9,-0.746 0.51,-1.754 0.06,-3.012 -1.33,-3.769 -1.39,-0.754 -2.09,-1.754 -2.09,-3.008 -0.25,0 -0.45,0.125 -0.57,0.383 -0.12,0.242 -0.32,0.371 -0.57,0.371 0,0.5 0.12,0.875 0.38,1.129 0.26,0.25 0.13,0.628 -0.38,1.125 z m 3.42,-8.274 v 1.125 z m 5.69,6.399 c -1.52,0.496 -2.15,1.25 -1.9,2.257 -0.25,1.25 0.25,2.258 1.52,3.012 1.27,0 2.03,-0.254 2.28,-0.754 0,-2.512 -0.64,-4.019 -1.9,-4.515 z m 4.18,21.839 c -0.26,-0.507 -0.44,-0.949 -0.58,-1.324 -0.12,-0.375 -0.43,-0.312 -0.94,0.192 0,0.5 0.13,0.75 0.37,0.75 0.26,0 0.64,0.125 1.15,0.382 z m -10.25,-27.113 0.38,0.371 v -0.371 z m 10.62,27.485 c 0,-0.254 -0.12,-0.372 -0.37,-0.372 0,0 0.12,0.118 0.37,0.372 z m -13.66,69.277 c -0.25,0 -0.5,0.12 -0.75,0.37 -0.26,0.51 -0.13,0.95 0.37,1.32 0.5,0.38 0.89,0.32 1.14,-0.19 0.26,-0.25 0,-0.75 -0.76,-1.5 z m 1.14,-40.66 c 0,-0.5 -0.12,-0.75 -0.38,-0.75 -0.25,0 -0.51,-0.13 -0.76,-0.38 -0.25,0 -0.38,0.06 -0.38,0.18 0,0.13 -0.12,0.2 -0.37,0.2 -0.26,0.5 -0.13,0.87 0.37,1.12 0.5,0.25 1.02,0.13 1.52,-0.37 z m -1.14,14.68 c -0.25,0.5 -0.25,0.69 0,0.56 0.25,-0.12 0.51,0.07 0.76,0.57 0.51,-0.5 0.57,-0.81 0.19,-0.94 -0.38,-0.12 -0.57,-0.32 -0.57,-0.57 -0.26,-0.25 -0.38,-0.12 -0.38,0.38 z m -1.13,-21.84 c 0,0 0,0.25 0,0.76 l 1.13,1.13 c 0.51,-0.26 0.64,-0.5 0.38,-0.76 -0.26,-0.25 -0.26,-0.5 0,-0.75 -0.26,-0.25 -0.76,-0.38 -1.51,-0.38 z m 4.55,-48.571 v 0.383 h 0.38 z m -3.04,21.465 c 0.26,0 0.38,-0.062 0.38,-0.187 0,-0.125 0.13,-0.184 0.38,-0.184 -0.25,-0.504 -0.25,-0.883 0,-1.133 0.25,-0.25 0.13,-0.504 -0.38,-0.758 -0.51,0.254 -0.88,0.317 -1.14,0.192 -0.25,-0.125 -0.37,0.062 -0.37,0.566 0,0.25 0.37,0.75 1.13,1.504 z m -1.13,13.18 c 0.75,0 1.26,-0.133 1.51,-0.379 0,-0.25 -0.38,-0.754 -1.14,-1.504 -0.5,0.5 -0.63,1.125 -0.37,1.883 z m 27.7,-135.168 c 0,1.254 0.57,1.633 1.71,1.133 1.14,-0.504 1.58,-1.133 1.33,-1.883 -0.26,-0.504 -0.32,-1.129 -0.19,-1.879 0.13,-0.758 -0.2,-1.266 -0.95,-1.508 -1.01,0.5 -1.52,1.125 -1.52,1.879 0,0.754 -0.13,1.508 -0.38,2.258 z m 53.51,137.434 c -0.51,0 -0.76,0.12 -0.76,0.37 -0.51,0.5 -0.51,0.88 0,1.13 0.51,0.25 0.89,0.12 1.14,-0.38 z m 0.38,6.02 c 0.25,0 0.38,-0.38 0.38,-1.13 l -0.38,-0.37 c -0.5,0.24 -0.69,0.55 -0.56,0.93 0.12,0.37 0.31,0.57 0.56,0.57 z m 3.42,64 c -1.01,-0.25 -1.77,0.25 -2.28,1.5 0.51,1.01 1.02,1.45 1.52,1.32 0.51,-0.12 0.88,-0.43 1.14,-0.93 0,-1.26 -0.13,-1.89 -0.38,-1.89 z m -2.28,-37.65 c -0.5,0 -0.82,-0.31 -0.95,-0.94 -0.12,-0.63 -0.44,-0.57 -0.94,0.19 0.5,0.25 0.88,0.81 1.13,1.69 0.26,0.88 0.51,0.57 0.76,-0.94 z m 0.76,12.43 c -0.51,0.24 -0.7,0.62 -0.57,1.13 0.13,0.5 0.44,0.62 0.95,0.37 0,-1 -0.12,-1.5 -0.38,-1.5 z m 0,-6.4 c 0,-0.51 -0.37,-0.76 -1.14,-0.76 0,0.5 0.38,0.76 1.14,0.76 z m -5.69,-8.29 c 0.5,0 0.88,-0.25 1.14,-0.75 0.25,-0.51 0.63,-0.63 1.13,-0.38 -0.76,-0.75 -1.64,-1 -2.65,-0.75 -0.76,0.75 -0.63,1.38 0.38,1.88 z m 0.38,-5.65 h 0.76 c 0,-0.5 -0.13,-0.88 -0.38,-1.12 z m -8.35,35.77 c -0.51,0.5 -0.7,1.01 -0.57,1.51 0.13,0.5 0.19,1.01 0.19,1.51 0.5,0.75 1.2,0.8 2.08,0.18 0.89,-0.63 1.21,-1.19 0.95,-1.69 -0.5,-1.26 -1.38,-1.76 -2.65,-1.51 z m 2.65,-25.6 c 0,0 -0.38,-0.38 -1.13,-1.13 -0.25,-0.25 -0.76,0 -1.52,0.75 0,0.76 0.38,1.39 1.13,1.89 0.51,0.25 0.77,0.18 0.77,-0.19 0,-0.38 0.25,-0.82 0.75,-1.32 z m 4.18,-2.64 c -0.51,0 -0.88,0.13 -1.14,0.38 -0.25,0.25 -0.25,0.5 0,0.75 0.76,0 1.14,-0.12 1.14,-0.37 z m 3.79,28.62 c -0.25,0.5 -0.63,0.82 -1.14,0.94 -0.5,0.13 -0.75,0.44 -0.75,0.94 0.25,0.5 0.31,0.94 0.19,1.32 -0.13,0.38 0.06,0.69 0.56,0.94 1.53,-0.5 2.41,-1.25 2.66,-2.26 0,-1 -0.5,-1.64 -1.52,-1.88 z m -1.89,1.88 c 0,-0.5 -0.26,-0.75 -0.76,-0.75 z m 0,10.17 c 0,-0.25 -0.26,-0.63 -0.76,-1.14 -0.25,0 -0.51,0.2 -0.76,0.57 -0.25,0.38 -0.13,0.69 0.38,0.94 0.76,0 1.14,-0.12 1.14,-0.37 z m 7.21,-125.379 c -0.51,0 -0.76,0.254 -0.76,0.754 0,0.507 -0.13,1 -0.38,1.503 0.25,0.5 0.31,1.129 0.19,1.887 -0.13,0.75 0.19,1.25 0.95,1.504 0.5,-0.254 0.88,-0.566 1.14,-0.941 0.25,-0.379 0.63,-0.821 1.13,-1.321 0.51,-1.004 0.45,-1.754 -0.19,-2.261 -0.63,-0.496 -1.32,-0.871 -2.08,-1.125 z m 32.64,67.019 c -0.25,0 -0.77,0.38 -1.52,1.13 0,0.75 0.25,1.07 0.75,0.94 0.52,-0.13 1.02,-0.44 1.52,-0.94 -0.25,-0.25 -0.31,-0.5 -0.18,-0.75 0.12,-0.25 -0.07,-0.38 -0.57,-0.38 z m -15.57,35.77 c 0,-0.25 -0.06,-0.38 -0.18,-0.38 -0.13,0 -0.19,-0.13 -0.19,-0.37 l -1.9,0.37 0.76,1.88 c 1.01,0 1.51,-0.5 1.51,-1.5 z m -4.17,-31.63 c -0.25,0.25 -0.44,0.32 -0.57,0.19 -0.12,-0.13 -0.31,0.06 -0.57,0.56 0,1.01 0.5,1.26 1.52,0.75 -0.26,0 -0.12,-0.25 0.38,-0.75 -0.5,0 -0.76,-0.25 -0.76,-0.75 z m 32.26,25.98 c -0.5,0 -0.95,0.06 -1.33,0.18 -0.37,0.13 -0.44,0.44 -0.19,0.95 1.02,0 1.52,-0.13 1.52,-0.37 z M 2762,1010.14 c -0.5,-0.5 -0.75,-0.38 -0.75,0.38 -0.51,0.75 -0.13,1.13 1.14,1.13 0,-1.01 -0.13,-1.51 -0.39,-1.51 z m 23.16,-13.179 c -1.02,0.504 -1.27,1.383 -0.77,2.641 0.26,-0.508 0.64,-0.883 1.14,-1.133 0.51,-0.25 0.51,-0.754 0,-1.508 z m -34.54,-32.004 c 0.5,-0.246 0.63,-0.437 0.38,-0.559 -0.26,-0.132 -0.26,-0.441 0,-0.949 -0.26,0 -0.51,0.133 -0.76,0.383 z m 3.03,20.707 c -0.76,0 -1.13,0.129 -1.13,0.375 l 0.37,0.762 c 0.52,-0.504 0.76,-0.883 0.76,-1.137 z m -17.45,25.226 c 0,0.26 0.12,0.44 0.37,0.57 0.26,0.13 0.51,-0.07 0.77,-0.57 0,-0.25 -0.07,-0.37 -0.2,-0.37 -0.12,0 -0.18,-0.13 -0.18,-0.38 -0.51,0 -0.76,0.25 -0.76,0.75 z m 15.55,-53.085 c -0.25,0.504 -0.18,0.82 0.2,0.945 0.37,0.121 0.69,-0.062 0.94,-0.57 v -1.125 c -0.25,0.246 -0.5,0.312 -0.75,0.187 -0.26,-0.125 -0.39,0.059 -0.39,0.563 z m 0,39.531 c -0.5,0 -0.75,0.504 -0.75,1.508 h 0.75 z m 7.21,26.364 c 0.26,-0.25 0.52,-0.38 0.77,-0.38 0,-0.25 -0.13,-0.5 -0.38,-0.76 z m -4.17,-33.509 c -0.25,0.243 -0.63,0.426 -1.14,0.559 -0.5,0.125 -0.76,0.438 -0.76,0.938 -0.5,1.261 -0.12,2.015 1.15,2.265 1.26,0.246 1.89,-0.25 1.89,-1.508 -0.25,-0.504 -0.38,-1.004 -0.38,-1.504 0,-0.507 -0.25,-0.75 -0.76,-0.75 z m -33.02,39.529 c 0.26,-0.51 0.57,-0.76 0.95,-0.76 0.38,0 0.45,-0.25 0.19,-0.75 -0.25,-0.25 -0.63,-0.37 -1.14,-0.37 z m -8.34,-35.392 c -0.77,-1.254 -1.4,-1.254 -1.9,0 0,0 -0.13,0.25 -0.38,0.75 -1.27,-0.75 -2.15,-1 -2.66,-0.75 -0.76,1.254 -1.01,2.508 -0.76,3.766 0.51,0.75 1.01,1.129 1.52,1.129 0.5,0 1.01,0.125 1.52,0.379 -0.25,-0.758 -0.19,-1.383 0.19,-1.887 0.38,-0.5 0.82,-1.004 1.33,-1.504 l 0.37,0.375 c 0.26,-0.504 0.51,-0.883 0.77,-1.129 0.25,-0.25 0.25,-0.625 0,-1.129 z m -4.56,6.782 c 0,-0.75 -0.25,-1.133 -0.76,-1.133 -0.51,0 -0.89,0.123 -1.14,0.383 -0.25,0.5 -0.06,0.93 0.57,1.31 0.64,0.38 1.08,0.19 1.33,-0.56 z m 0.38,11.67 c 0.5,-0.76 0.95,-1.01 1.33,-0.76 0.38,0.25 0.76,0.57 1.13,0.94 0.38,0.38 0.76,0.63 1.15,0.75 0.37,0.14 0.82,-0.18 1.32,-0.93 -0.25,-0.51 -0.38,-1.07 -0.38,-1.7 0,-0.63 -0.51,-0.81 -1.51,-0.56 l -0.38,1.13 c -0.51,0.25 -0.89,0.06 -1.14,-0.57 -0.25,-0.63 -0.76,-0.69 -1.52,-0.19 0,0.5 -0.07,0.82 -0.19,0.94 -0.13,0.13 -0.06,0.44 0.19,0.95 z m 24.29,56.1 c -0.76,0.25 -1.14,0.5 -1.14,0.75 -0.25,0.5 -0.19,0.88 0.19,1.13 0.38,0.25 0.82,0.13 1.33,-0.38 -0.26,-0.25 -0.26,-0.5 0,-0.75 0.25,-0.25 0.12,-0.5 -0.38,-0.75 z m -23.53,-18.45 c -0.51,-0.25 -0.89,-0.13 -1.14,0.37 -0.25,0.5 -0.38,0.88 -0.38,1.13 0,1.51 0.51,2.26 1.52,2.26 0.51,0 1.14,-0.63 1.9,-1.88 -0.25,-0.5 -0.45,-1.01 -0.57,-1.51 -0.13,-0.5 -0.57,-0.62 -1.33,-0.37 z m 5.69,-6.78 c -0.25,-0.5 -0.5,-0.63 -0.75,-0.38 -0.26,0.25 -0.52,0.25 -0.77,0 -0.5,0.51 -0.69,1 -0.57,1.51 0.13,0.5 0.32,0.88 0.57,1.13 0.25,0 0.77,-0.37 1.52,-1.13 -0.5,-1 -0.31,-1.44 0.57,-1.32 0.88,0.13 1.08,-0.31 0.57,-1.32 -0.51,0 -0.76,0.19 -0.76,0.57 0,0.38 -0.13,0.69 -0.38,0.94 z m -10.24,-29.37 c 0.75,0 1.13,-0.12 1.13,-0.37 0,-0.26 -0.05,-0.38 -0.19,-0.38 -0.12,0 -0.19,-0.12 -0.19,-0.38 h -0.75 z m 0.37,39.53 c -0.25,0 -0.44,-0.12 -0.57,-0.37 -0.12,-0.26 -0.31,-0.38 -0.56,-0.38 l 0.38,1.51 z m 2.66,-7.9 -0.38,1.13 0.76,-0.75 z m 8.35,-17.32 c 0,0 0,-0.38 0,-1.13 h -0.76 z M 2704.32,1006 c 0.25,-0.25 0.38,-0.63 0.38,-1.12 h -1.15 z m 4.17,17.32 c -0.51,0 -0.76,0.13 -0.76,0.38 l 0.76,1.12 c 0,-0.25 0.13,-0.5 0.38,-0.75 0.25,-0.25 0.13,-0.5 -0.38,-0.75 z m -1.14,8.28 h -0.76 v 1.13 h 0.76 z m 10.25,-23.72 c -0.76,-0.25 -1.65,0.12 -2.65,1.13 0.25,0.75 0.37,1.51 0.37,2.26 0,0.75 0.38,1.25 1.14,1.51 1.01,0 1.58,-0.26 1.71,-0.76 0.12,-0.5 0.44,-1 0.95,-1.5 0,-1.51 -0.51,-2.39 -1.52,-2.64 z m 9.86,32.01 c -1,0.24 -1.51,0.87 -1.51,1.87 -0.25,1.02 0.12,1.58 1.14,1.7 1.01,0.13 1.52,-0.44 1.52,-1.7 0.25,-0.49 0.18,-0.81 -0.19,-0.94 -0.38,-0.12 -0.7,-0.43 -0.96,-0.93 z m -12.14,-24.1 c 0,1.25 0.38,1.5 1.14,0.75 0,-0.25 0.06,-0.37 0.19,-0.37 0.13,0 0.19,-0.13 0.19,-0.38 0,0 -0.13,-0.25 -0.38,-0.75 -0.76,0 -1.14,0.25 -1.14,0.75 z m 11.77,12.8 c 0,0.75 0.25,1.13 0.76,1.13 v -1.51 c -0.26,0 -0.51,0.13 -0.76,0.38 z m 4.55,22.97 c -0.25,0 -0.5,0.12 -0.76,0.37 l 0.38,1.13 c 0.51,-0.25 0.63,-0.5 0.38,-0.75 -0.25,-0.26 -0.25,-0.5 0,-0.75 z m -4.93,-32.01 c -0.25,-0.25 -0.76,0 -1.52,0.75 l 0.76,2.64 c 0.51,0.25 0.88,0.19 1.14,-0.19 0.25,-0.37 0.25,-0.81 0,-1.32 0,-1.25 -0.13,-1.88 -0.38,-1.88 z m 2.27,-1.5 c -0.5,0.25 -0.75,0.63 -0.75,1.13 0,0.5 0.25,0.87 0.75,1.12 0.51,0.26 0.76,0.13 0.76,-0.37 0,-0.5 0.26,-0.88 0.76,-1.13 -0.76,-0.75 -1.26,-1 -1.52,-0.75 z m -2.27,20.71 c 0.75,0.75 1.26,0.75 1.52,0 0,-1.01 -0.13,-1.51 -0.38,-1.51 -0.51,0 -0.76,0.12 -0.76,0.38 0,0.25 -0.13,0.62 -0.38,1.13 z m -3.8,-18.08 c -0.25,0.51 -0.19,0.88 0.19,1.13 0.38,0.25 0.82,0.13 1.33,-0.38 -0.25,0 -0.51,-0.12 -0.76,-0.38 -0.25,-0.24 -0.5,-0.37 -0.76,-0.37 z m -3.03,15.43 c -0.25,0.51 -0.19,1.08 0.18,1.71 0.39,0.62 0.83,0.56 1.33,-0.19 0,-1.01 -0.12,-1.52 -0.37,-1.52 z m 0.38,-12.41 c -0.26,-0.51 -0.63,-0.88 -1.14,-1.14 -0.51,-0.24 -1.01,-0.12 -1.52,0.38 -0.51,1.51 -0.13,2.32 1.14,2.45 1.26,0.13 1.76,-0.44 1.52,-1.69 z m -0.38,4.51 c -0.25,-0.25 -0.64,-0.37 -1.14,-0.37 -0.76,0.75 -0.63,1.37 0.38,1.88 0.76,-0.76 1.01,-1.26 0.76,-1.51 z m 3.03,27.86 c -1.27,-0.75 -1.64,-0.25 -1.14,1.51 0.77,0 1.4,-0.38 1.9,-1.13 0,0 -0.25,-0.12 -0.76,-0.38 z m -21.63,-3.39 c -0.51,-0.25 -0.82,-0.5 -0.95,-0.75 -0.13,-0.25 -0.44,-0.37 -0.95,-0.37 -0.5,1.25 0.13,1.62 1.9,1.12 z m -43.27,-507.524 c 1.02,-0.754 1.28,-1.883 0.76,-3.386 0,-0.754 -0.25,-0.879 -0.76,-0.375 -0.76,0.496 -0.94,1.128 -0.57,1.878 0.38,0.75 0.57,1.379 0.57,1.883 z m 61.87,314.383 c 0,0.25 0.06,0.313 0.18,0.188 0.14,-0.125 0.2,-0.313 0.2,-0.563 0,-0.504 -0.13,-0.883 -0.38,-1.129 z m 0.38,18.07 c 1.51,0.254 2.28,-0.504 2.28,-2.257 0,-1.004 -0.39,-1.633 -1.15,-1.883 -1.76,0.754 -2.15,2.136 -1.13,4.14 z m -83.5,-47.062 c -0.76,0 -0.89,0.504 -0.38,1.508 l 0.76,-0.375 z m 87.29,64.766 c 0,0.496 0.13,0.933 0.38,1.312 0.25,0.379 0.63,0.313 1.14,-0.191 -0.25,-0.496 -0.32,-0.879 -0.19,-1.121 0.13,-0.258 -0.06,-0.383 -0.57,-0.383 -0.26,0 -0.5,0.125 -0.76,0.383 z m -16.7,-203.321 c 0.51,0 0.89,-0.125 1.14,-0.371 -0.25,-0.508 -0.31,-0.883 -0.19,-1.133 0.13,-0.254 -0.06,-0.5 -0.57,-0.758 h -0.38 z m 8.73,174.703 c 1.52,0.246 2.53,-0.507 3.04,-2.257 0,-2.262 -0.51,-3.77 -1.52,-4.524 -0.76,0.25 -1.2,0.625 -1.33,1.133 -0.13,0.5 -0.44,1.004 -0.95,1.504 -0.51,0.75 -0.57,1.445 -0.19,2.074 0.38,0.625 0.7,1.32 0.95,2.07 z m 1.9,33.504 c -0.51,-0.25 -0.76,-0.187 -0.76,0.192 0,0.371 -0.13,0.687 -0.38,0.941 -0.51,0.75 -0.44,1.254 0.19,1.504 0.63,0.25 1.08,0 1.33,-0.754 -0.25,-0.496 -0.25,-0.879 0,-1.121 0.25,-0.258 0.12,-0.508 -0.38,-0.762 z m 40.61,147.971 c 0.25,0.25 0,0.75 -0.76,1.51 l 0.76,0.37 c 0.76,-0.76 1.01,-1.13 0.76,-1.13 v -0.75 z m -12.53,-89.607 c 0,0 0.25,-0.133 0.76,-0.383 v -0.746 c -1.27,0 -1.52,0.371 -0.76,1.129 z m 13.67,22.21 c -0.25,1.504 0.44,2.133 2.09,1.879 1.64,-0.242 2.34,-0.996 2.08,-2.257 -0.26,-0.75 -0.44,-1.563 -0.57,-2.446 -0.13,-0.879 -0.57,-1.191 -1.33,-0.945 -1.01,0.508 -1.77,1.758 -2.27,3.769 z m 1.14,-95.257 0.76,-0.375 -0.38,-0.754 -0.77,0.379 z m 0.76,89.988 c 0,-0.762 0.06,-1.387 0.19,-1.883 0.12,-0.504 -0.19,-1.004 -0.95,-1.504 -1.27,-0.258 -2.16,0.5 -2.66,2.254 0,1.758 0.38,2.887 1.14,3.391 0.5,-0.25 0.88,-0.563 1.13,-0.942 0.26,-0.375 0.64,-0.816 1.15,-1.316 z M 2751,904.719 c 0.5,0.25 0.95,0.125 1.32,-0.375 0.39,-0.504 0.57,-0.879 0.57,-1.125 -0.25,-0.508 -0.31,-1.008 -0.18,-1.508 0.12,-0.508 -0.07,-0.883 -0.57,-1.133 -0.76,0 -1.14,0.25 -1.14,0.754 0,0.5 -0.26,1.004 -0.76,1.504 0,0.754 0.25,1.379 0.76,1.883 z m -45.92,-44.051 c 0.75,-0.754 0.88,-1.254 0.38,-1.504 -0.51,0 -0.76,0.25 -0.76,0.75 z m -37.2,-113.703 c 0.51,0.504 0.89,0.562 1.14,0.191 0.25,-0.383 0.63,-0.816 1.14,-1.32 -0.51,-0.758 -0.63,-1.633 -0.38,-2.641 0.25,-1 -0.25,-1.75 -1.52,-2.257 -1.26,0.507 -1.78,1.386 -1.52,2.64 0.26,1.25 0.64,2.383 1.14,3.387 z m -18.6,36.144 c 0,0 0.26,-0.257 0.76,-0.754 0,-0.5 -0.38,-1.128 -1.14,-1.882 -0.76,0.754 -0.63,1.629 0.38,2.636 z m -9.1,80.575 c 0,0.496 0.12,0.941 0.38,1.312 0.25,0.379 0.63,0.313 1.14,-0.183 -0.26,-0.5 -0.32,-0.879 -0.2,-1.129 0.13,-0.254 -0.06,-0.383 -0.57,-0.383 -0.5,0 -0.75,0.129 -0.75,0.383 z m 11.38,-2.262 c 0.25,0.25 0.76,0.375 1.52,0.375 l -0.38,-0.75 c -0.5,0 -0.89,0.121 -1.14,0.375 z m 7.97,-509.414 c 0.76,-0.75 1.01,-1.25 0.76,-1.504 -0.76,0 -1.14,0.125 -1.14,0.379 z m 36.43,64.762 c -0.5,-3.516 -0.38,-6.903 0.39,-10.165 0.75,-3.265 1.64,-6.652 2.65,-10.167 -0.5,-1.25 -1.07,-2.512 -1.71,-3.766 -0.63,-1.254 -1.71,-2.137 -3.22,-2.637 -0.76,-0.496 -1.77,-0.691 -3.04,-0.566 -1.26,0.129 -2.4,0.441 -3.42,0.945 -2.02,1.004 -3.16,2.387 -3.41,4.137 -0.25,1.765 -0.19,3.644 0.19,5.648 0.38,2.008 0.76,4.082 1.14,6.215 0.38,2.137 0.31,4.082 -0.19,5.84 0.25,0.75 0.31,1.629 0.19,2.629 -0.13,1.004 -0.19,2.015 -0.19,3.015 0.25,2.512 0.19,5.082 -0.19,7.719 -0.38,2.633 -0.32,5.336 0.19,8.098 -0.51,0.246 -0.57,0.371 -0.19,0.371 0.38,0 0.44,0.254 0.19,0.754 -0.25,2.258 -0.13,4.394 0.38,6.402 0.5,2.008 0.5,4.145 0,6.399 0.76,2.261 1.01,4.711 0.76,7.343 -0.26,2.637 -0.26,5.211 0,7.719 l 0.38,1.129 c 0,3.516 -0.25,7.027 -0.76,10.543 -0.51,3.516 -0.51,7.023 0,10.543 -0.76,5.27 -1.33,10.602 -1.71,16 -0.38,5.395 -1.2,10.605 -2.47,15.625 0.51,4.266 1.01,8.285 1.52,12.051 0.51,3.765 0.76,7.648 0.76,11.668 0.25,4.519 0.57,8.91 0.95,13.179 0.38,4.266 0.19,8.532 -0.57,12.801 0,0.504 0.12,1 0.38,1.504 0.25,0.504 0.13,1.004 -0.38,1.508 0,0.75 0.12,1.629 0.38,2.637 0.25,1 0.25,1.882 0,2.632 -1.27,3.516 -1.96,7.094 -2.08,10.731 -0.13,3.644 -0.19,7.219 -0.19,10.73 -0.51,3.52 -0.64,7.157 -0.39,10.922 0.25,3.762 0,7.407 -0.76,10.918 0.51,1.254 0.64,2.442 0.38,3.574 -0.25,1.125 -0.38,2.321 -0.38,3.582 -0.76,2.762 -0.88,5.77 -0.37,9.036 0.5,3.257 0.37,6.269 -0.39,9.039 l 0.76,2.254 c -1.26,5.515 -1.64,11.23 -1.13,17.132 0.5,5.895 0.13,11.614 -1.14,17.125 0.5,2.258 0.44,4.457 -0.2,6.59 -0.62,2.137 -0.31,4.332 0.95,6.594 -0.75,1.754 -1.07,3.633 -0.95,5.645 0.14,2.007 0.2,4.015 0.2,6.019 -1.01,7.035 -1.52,14.125 -1.52,21.277 0,7.153 -0.51,14.247 -1.52,21.274 0.5,2.262 0.5,4.328 0,6.211 -0.51,1.883 -0.51,3.832 0,5.836 -0.76,4.269 -1.2,8.535 -1.33,12.804 -0.13,4.262 -0.31,8.532 -0.57,12.797 0,8.285 0,16.508 0,24.66 0,8.161 -0.12,16.258 -0.38,24.286 -0.25,0.504 -0.57,0.816 -0.95,0.945 -0.37,0.125 -0.44,0.437 -0.19,0.941 l 0.76,0.371 c -0.5,5.024 -0.82,9.922 -0.94,14.684 -0.13,4.773 -0.32,9.664 -0.58,14.688 -0.75,1.753 -1.38,3.507 -1.89,5.273 -0.51,1.758 -1.27,3.508 -2.28,5.269 -0.5,0.5 -1.01,1.254 -1.52,2.258 -0.5,1.004 -1.13,0.875 -1.89,-0.379 -0.51,0.5 -0.63,1.008 -0.38,1.508 0.25,0.5 0.38,1.008 0.38,1.508 -2.79,4.516 -6.08,8.598 -9.88,12.234 -3.79,3.645 -6.45,8.102 -7.96,13.368 0,2.003 -0.63,4.015 -1.9,6.027 -1.27,5.766 -2.09,12.043 -2.46,18.824 -0.39,6.774 1.32,12.668 5.12,17.688 2.27,2.515 4.81,3.836 7.59,3.957 2.79,0.125 5.56,0.82 8.35,2.074 2.02,0 3.79,-0.883 5.31,-2.641 1.52,-1.758 2.66,-3.515 3.41,-5.269 l 1.9,1.133 c 0.26,-0.254 0.38,-0.883 0.38,-1.883 -0.76,0 -1.26,-0.129 -1.52,-0.375 0,-1.512 0.26,-2.949 0.76,-4.332 0.51,-1.379 0.89,-2.696 1.14,-3.957 l 3.79,-8.278 c 0.51,0.25 0.77,0.434 0.77,0.563 0,0.125 0.25,0.183 0.75,0.183 l -0.37,-1.121 c -0.51,0 -0.89,-0.129 -1.15,-0.382 -0.24,-6.52 0.07,-12.739 0.95,-18.637 0.89,-5.899 3.24,-11.481 7.03,-16.75 1.01,-2.762 1.96,-5.52 2.84,-8.285 0.89,-2.762 0.95,-5.649 0.2,-8.661 0.5,-1.257 0.5,-2.695 0,-4.328 -0.51,-1.632 -0.89,-3.328 -1.14,-5.082 0.25,-2.257 0.06,-4.457 -0.57,-6.593 -0.63,-2.133 -0.45,-4.2 0.57,-6.211 0,-4.02 0.25,-7.844 0.76,-11.481 0.5,-3.644 0.88,-7.347 1.13,-11.109 0.76,0.508 1.14,1.191 1.14,2.07 0,0.879 0.51,1.32 1.52,1.32 1.77,-1.011 2.78,-2.386 3.03,-4.144 0.25,-1.758 0.39,-3.512 0.39,-5.27 l -0.39,-0.375 c -0.25,-0.254 -0.31,-0.687 -0.18,-1.316 0.12,-0.633 -0.07,-1.199 -0.57,-1.695 -0.26,-0.504 -0.57,-0.633 -0.95,-0.375 -0.38,0.242 -0.7,0.375 -0.95,0.375 -1.27,1.254 -2.15,3.136 -2.65,5.648 -1.02,-2.008 -1.08,-3.891 -0.2,-5.648 0.89,-1.762 0.7,-3.641 -0.57,-5.645 0,-1.262 0.13,-2.578 0.38,-3.957 0.25,-1.383 0.39,-2.828 0.39,-4.332 -0.26,-0.754 -0.32,-1.566 -0.2,-2.445 0.13,-0.879 0.06,-1.821 -0.19,-2.828 -0.25,-1.254 -0.32,-2.571 -0.18,-3.957 0.12,-1.375 0.18,-2.692 0.18,-3.95 -0.5,-1.004 -0.63,-2.004 -0.38,-3.007 0.26,-1.008 0.13,-2.137 -0.37,-3.391 0.25,-0.754 0.31,-1.316 0.18,-1.695 -0.12,-0.371 -0.31,-0.942 -0.56,-1.696 0.25,-2.004 0.44,-3.953 0.56,-5.832 0.13,-1.886 0.32,-3.828 0.57,-5.836 0.51,-2.261 0.57,-4.644 0.19,-7.152 -0.37,-2.512 -0.31,-4.898 0.2,-7.156 1,-3.512 1.32,-7.086 0.94,-10.735 -0.38,-3.632 -0.06,-7.214 0.95,-10.726 -0.76,-4.516 -0.76,-8.973 0,-13.367 0.76,-4.391 0.63,-8.723 -0.38,-12.993 1.01,-2.003 1.27,-4.199 0.76,-6.582 -0.51,-2.386 -0.25,-4.582 0.76,-6.589 -0.51,-2.258 -0.51,-4.582 0,-6.969 0.51,-2.383 0.63,-4.832 0.38,-7.344 -0.25,-4.012 0,-8.527 0.76,-13.547 -0.25,-4.269 -0.19,-8.472 0.19,-12.617 0.38,-4.141 0.32,-8.344 -0.19,-12.617 0.75,-2.004 0.88,-4.008 0.38,-6.024 -0.51,-2.004 -0.51,-4.011 0,-6.019 0.25,-3.516 0.25,-7.031 0,-10.543 -0.26,-3.512 0.13,-6.777 1.14,-9.785 -1.01,-1.512 -1.01,-2.766 0,-3.766 1.01,-1.004 1.01,-2.262 0,-3.769 l 0.37,-0.372 c -0.25,-1.007 -0.25,-2.015 0,-3.015 0.26,-1.004 0.38,-2.129 0.38,-3.391 0,-2.258 0.13,-4.578 0.39,-6.961 0.25,-2.383 0.12,-4.84 -0.39,-7.34 0.26,-2.015 0.39,-4.082 0.39,-6.218 0,-2.129 -0.26,-4.2 -0.77,-6.211 1.27,-2.012 1.52,-3.828 0.77,-5.457 -0.77,-1.633 -0.63,-3.453 0.37,-5.457 -0.5,-1.258 -0.57,-2.453 -0.18,-3.582 0.37,-1.129 0.18,-2.321 -0.58,-3.575 1.02,-1.753 1.27,-3.703 0.76,-5.836 -0.5,-2.132 -0.76,-4.078 -0.76,-5.835 -0.24,-0.504 -0.18,-0.879 0.19,-1.133 0.39,-0.25 0.32,-0.625 -0.19,-1.129 -0.24,-1.504 -0.24,-3.074 0,-4.707 0.26,-1.629 -0.12,-3.071 -1.14,-4.328 l 0.39,-0.371 -0.39,-0.383 c 0.25,-2.008 0.2,-4.012 -0.18,-6.024 -0.38,-2 -0.57,-3.761 -0.57,-5.269 0.5,-2.012 0.57,-3.953 0.19,-5.836 -0.38,-1.883 -0.06,-3.703 0.95,-5.461 -0.77,-0.75 -0.95,-1.566 -0.57,-2.441 0.38,-0.887 0.18,-1.571 -0.57,-2.075 0,-3.269 0.57,-6.336 1.71,-9.218 1.13,-2.895 1.07,-6.094 -0.2,-9.602 0.26,-2.266 0.64,-4.523 1.14,-6.781 0.51,-2.258 0.51,-4.77 0,-7.528 -0.5,-0.507 -0.63,-1.07 -0.37,-1.699 0.25,-0.629 0.37,-1.187 0.37,-1.695 l -0.37,-0.371 c -0.26,-4.274 -0.57,-8.664 -0.95,-13.18 -0.38,-4.523 -0.45,-8.914 -0.19,-13.176 -0.51,-3.519 -0.64,-7.222 -0.39,-11.113 0.25,-3.891 0.25,-7.719 0,-11.48 z m -59.2,463.097 c 0,1.004 0.25,1.508 0.76,1.508 0,-1.004 -0.13,-1.508 -0.38,-1.508 z m 1.14,-0.371 c 0.5,0 0.89,-0.258 1.14,-0.754 -0.76,-0.754 -1.14,-1.012 -1.14,-0.754 z M 2663.7,849 c 3.04,-0.504 4.82,-2.199 5.32,-5.086 0.51,-2.891 1.01,-5.457 1.52,-7.715 0.5,-2.765 0.57,-5.59 0.19,-8.476 -0.38,-2.883 -1.08,-5.711 -2.09,-8.469 -1.26,-0.754 -2.16,-0.754 -2.66,0 -5.82,5.773 -8.09,13.051 -6.83,21.836 0.26,1.504 0.76,3.015 1.52,4.519 0.76,1.5 1.77,2.633 3.03,3.391 z m -2.27,-213.484 c 0.5,0 1.14,-0.375 1.9,-1.129 -0.26,-0.5 -0.51,-0.625 -0.76,-0.371 -0.25,0.246 -0.51,0.371 -0.77,0.371 z m 7.59,172.441 c -0.5,-0.5 -0.76,-0.379 -0.76,0.375 -0.76,0.754 -0.51,1.129 0.76,1.129 z m 2.66,-7.531 c 0,1.004 0.25,1.258 0.76,0.754 v -1.129 c -0.26,0 -0.51,0.121 -0.76,0.375 z m 91.84,170.933 c 0,0.5 0.19,0.821 0.57,0.942 0.38,0.125 0.57,-0.059 0.57,-0.563 0.5,-0.504 0.38,-0.754 -0.38,-0.754 -0.25,0 -0.38,0.063 -0.38,0.192 0,0.121 -0.12,0.183 -0.38,0.183 z M 2662.19,726.254 c 0.5,-0.246 0.88,-0.625 1.14,-1.125 0.25,-0.508 0,-1.008 -0.76,-1.508 h -0.38 z m 92.22,-106.922 c 1.02,-2.758 1.14,-5.586 0.38,-8.473 -0.75,-2.886 -0.88,-5.714 -0.38,-8.468 0,-7.286 0.76,-14.317 2.28,-21.09 -0.5,-1.004 -0.82,-2.133 -0.95,-3.391 -0.12,-1.254 -0.69,-2.258 -1.7,-3.008 -1.27,-0.754 -2.6,-1.007 -3.99,-0.754 -1.39,0.25 -2.72,0.629 -3.99,1.133 -2.27,1.5 -3.16,4.016 -2.65,7.524 1.01,3.265 1.45,6.402 1.33,9.418 -0.13,3.011 -0.32,6.082 -0.57,9.222 -0.26,3.141 -0.51,6.274 -0.76,9.414 -0.25,3.133 0,6.336 0.76,9.602 0.75,1.754 1.01,3.449 0.75,5.082 -0.24,1.633 0,3.324 0.76,5.082 -0.76,1.5 -0.88,2.945 -0.38,4.328 0.51,1.387 0.38,2.824 -0.38,4.328 1.02,2.762 1.14,5.149 0.38,7.157 -0.75,2.003 -0.88,4.265 -0.38,6.777 -0.75,2.004 -1.01,3.765 -0.75,5.273 0.25,1.508 0.12,3.258 -0.38,5.266 -0.25,2.516 -0.45,5.082 -0.57,7.719 -0.13,2.64 0.06,5.332 0.57,8.093 0.25,1.512 0.44,3.262 0.57,5.278 0.12,2.004 -0.19,3.761 -0.95,5.269 0.25,1.754 -0.07,3.391 -0.95,4.899 -0.89,1.5 -0.7,3.129 0.57,4.886 -1.27,2.016 -1.46,4.086 -0.57,6.211 0.88,2.137 0.7,4.207 -0.57,6.215 1.01,3.012 1.14,5.84 0.38,8.469 -0.76,2.645 -0.64,5.461 0.38,8.469 0.76,5.777 0.19,11.113 -1.71,16.008 -1.9,4.89 -3.1,10.101 -3.6,15.625 -0.51,1.257 -0.45,2.57 0.18,3.949 0.64,1.383 0.19,2.703 -1.32,3.953 0.51,2.262 0.37,4.457 -0.38,6.594 -0.76,2.132 -0.76,4.207 0,6.211 -0.51,3.265 -0.63,6.273 -0.38,9.035 0.25,2.761 0.12,5.769 -0.38,9.039 0.5,4.015 0.25,7.715 -0.76,11.105 -1.01,3.391 -1.26,7.086 -0.76,11.11 0,1 -0.13,2.004 -0.38,3.011 -0.25,1.004 -0.25,2.004 0,3.008 -0.51,2.262 -0.82,4.582 -0.95,6.969 -0.13,2.383 -0.44,4.582 -0.95,6.586 1.02,2.758 1.26,5.273 0.76,7.535 -0.51,2.254 -1.2,4.516 -2.08,6.777 -0.89,2.258 -1.84,4.52 -2.85,6.774 -1.02,2.262 -1.39,4.644 -1.14,7.156 0.25,2.004 0.44,4.012 0.57,6.023 0.12,2 1.2,3.508 3.22,4.516 1.02,0.25 1.77,-0.058 2.28,-0.941 0.5,-0.879 1.27,-0.817 2.28,0.191 0.5,2.258 0.32,4.324 -0.57,6.211 -0.89,1.879 -1.08,3.824 -0.57,5.836 -0.51,2.504 -0.95,4.961 -1.33,7.34 -0.38,2.387 -0.82,4.832 -1.33,7.344 0,1.003 -0.5,1.632 -1.52,1.878 -1.01,0.254 -2.02,0.383 -3.03,0.383 -1.01,0 -1.71,0.188 -2.09,0.563 -0.38,0.379 -0.19,1.191 0.57,2.445 0.51,0.254 0.89,0.317 1.14,0.188 0.25,-0.125 0.5,0.066 0.76,0.57 -0.51,1.754 -1.45,3.191 -2.85,4.324 -1.39,1.129 -2.85,2.192 -4.36,3.203 -1.27,-0.504 -2.03,-1.254 -2.28,-2.261 -0.25,-1.008 -1.01,-1.633 -2.27,-1.879 0,0 0,-0.379 0,-1.129 h -0.77 c 0.51,1.25 0.26,2.066 -0.75,2.441 -1.02,0.379 -1.65,1.192 -1.9,2.445 -0.77,2.266 -0.77,4.645 0,7.161 -1.77,0.246 -2.28,1.066 -1.52,2.445 0.75,1.379 0.25,2.195 -1.52,2.445 -0.76,0.254 -1.57,0.125 -2.47,-0.371 -0.88,-0.508 -1.7,-0.945 -2.46,-1.32 -0.76,-0.375 -1.46,-0.442 -2.09,-0.192 -0.63,0.254 -1.07,1.129 -1.32,2.637 0,1.008 0,2.074 0,3.203 0,1.129 0.37,2.067 1.13,2.828 0,0.243 -0.38,0.371 -1.13,0.371 0.5,0.5 0.75,0.879 0.75,1.125 -0.5,0.504 -0.95,0.438 -1.33,-0.187 -0.38,-0.625 -0.31,-0.313 0.19,0.949 0,0.746 -0.32,1.375 -0.95,1.879 -0.63,0.504 -1.2,1 -1.71,1.508 -0.51,0.5 -0.82,1.066 -0.94,1.695 -0.13,0.625 0.06,1.438 0.57,2.446 -0.77,0.746 -1.01,1.253 -0.77,1.507 l 0.38,0.371 c 0,-0.503 0.39,-0.75 1.14,-0.75 0.26,0.247 0.39,0.625 0.39,1.129 -0.51,0.5 -0.89,0.75 -1.14,0.75 l 0.37,1.129 c 0.77,0.504 1.46,0.446 2.09,-0.187 0.64,-0.625 1.21,-0.559 1.71,0.187 -0.25,2.016 -0.75,3.953 -1.52,5.84 -0.76,1.879 -1.01,3.824 -0.76,5.836 -0.5,0.246 -0.69,0.566 -0.56,0.941 0.12,0.372 -0.07,0.692 -0.58,0.938 -0.75,0 -1.52,0.254 -2.27,0.758 -0.25,0.75 -0.06,1.254 0.57,1.504 0.63,0.254 1.2,0.625 1.7,1.129 0.26,1.253 0.45,2.636 0.58,4.144 0.12,1.496 -0.45,2.633 -1.72,3.387 -0.25,1 -0.06,1.633 0.58,1.883 0.63,0.246 1.2,0.625 1.7,1.129 0,1.757 0.45,3.199 1.33,4.328 0.89,1.132 1.58,2.445 2.09,3.957 l 0.38,-0.383 c 2.02,2.262 4.36,3.641 7.02,4.141 2.65,0.507 5.25,0.757 7.78,0.757 -2.27,2.262 -3.29,4.391 -3.04,6.399 0.51,1.008 1.08,2.016 1.71,3.016 0.63,1 1.58,1.63 2.85,1.88 1.27,-0.5 2.09,0 2.47,1.51 0.37,1.5 1.32,1.63 2.84,0.38 v -1.89 c 0.25,-1.01 -0.38,-2.01 -1.9,-3.01 -0.5,-1.003 -0.75,-2.074 -0.75,-3.199 0,-1.133 0,-2.074 0,-2.824 -0.76,0.246 -1.27,0.125 -1.52,-0.379 -0.26,-0.504 -0.64,-0.883 -1.14,-1.129 0.5,-1.004 1.14,-1.379 1.9,-1.129 0.76,0.25 1.38,0.125 1.89,-0.382 l 3.42,-3.004 c 1.01,1.25 2.09,2.441 3.22,3.574 1.15,1.125 2.35,1.941 3.61,2.449 3.04,0 5.95,-1.129 8.73,-3.391 2.28,-3.265 3.48,-6.773 3.61,-10.543 0.12,-3.769 1.2,-7.406 3.22,-10.918 0.25,-2.011 0.06,-3.89 -0.57,-5.648 -0.63,-1.758 -1.26,-3.449 -1.9,-5.082 -0.63,-1.633 -1.01,-3.266 -1.13,-4.895 -0.13,-1.628 0.44,-3.328 1.7,-5.082 -1.01,-2.261 -1.2,-4.335 -0.57,-6.21 0.64,-1.887 1.52,-3.708 2.67,-5.465 1.13,-1.754 2.21,-3.512 3.22,-5.27 1.01,-1.754 1.39,-3.765 1.14,-6.023 0.5,-2.512 0.37,-4.957 -0.38,-7.344 -0.76,-2.379 -1.14,-4.582 -1.14,-6.582 -2.03,-1.762 -3.29,-4.024 -3.8,-6.777 -0.5,-0.758 -0.63,-1.446 -0.38,-2.071 0.26,-0.633 0.13,-1.449 -0.37,-2.445 0.5,-3.777 0.88,-7.664 1.13,-11.68 0.26,-4.015 0.63,-8.156 1.15,-12.422 -0.26,-1.004 -0.64,-1.82 -1.15,-2.449 -0.5,-0.629 -0.5,-1.566 0,-2.82 -2.28,-2.012 -3.16,-4.336 -2.66,-6.965 0.51,-2.637 0.38,-5.336 -0.37,-8.098 -0.26,-3.515 -0.26,-7.093 0,-10.73 0.25,-3.641 0.37,-7.34 0.37,-11.106 0.51,-2.011 0.83,-3.894 0.96,-5.652 0.12,-1.758 -0.07,-3.637 -0.58,-5.644 0.76,-0.504 0.95,-1.196 0.58,-2.067 -0.39,-0.879 -0.33,-1.57 0.18,-2.074 0.51,-1.508 0.64,-3.141 0.39,-4.899 -0.26,-1.757 0.12,-3.386 1.13,-4.894 1.01,-2.004 1.08,-3.949 0.19,-5.836 -0.89,-1.875 -0.69,-3.828 0.57,-5.832 0.25,-2.262 0.13,-4.457 -0.38,-6.594 -0.51,-2.129 -0.51,-4.328 0,-6.586 -1.01,-5.523 -0.38,-11.043 1.9,-16.566 -0.76,-2.508 -0.89,-4.895 -0.38,-7.152 0.5,-2.258 0.89,-4.641 1.14,-7.153 1.26,-3.512 1.83,-7.027 1.7,-10.547 -0.12,-3.511 0.2,-7.019 0.96,-10.539 0.25,-0.754 0.13,-1.441 -0.39,-2.07 -0.5,-0.625 -0.5,-1.191 0,-1.695 l -0.37,-0.383 0.76,-1.121 c -0.51,-2.508 -0.64,-4.961 -0.39,-7.344 0.26,-2.383 0.13,-4.828 -0.37,-7.344 0.5,-1.758 0.89,-3.574 1.13,-5.457 0.26,-1.883 0.13,-3.828 -0.37,-5.836 0.25,-1.758 0.37,-3.511 0.37,-5.269 0,-1.758 -0.24,-3.516 -0.76,-5.274 0.52,-1.258 0.64,-2.32 0.39,-3.195 -0.26,-0.879 -0.13,-1.949 0.37,-3.203 -0.24,-2.008 0.19,-3.766 1.33,-5.274 1.15,-1.507 1.08,-3.261 -0.19,-5.269 0.51,-0.504 0.64,-0.942 0.38,-1.317 -0.24,-0.378 -0.24,-0.945 0,-1.695 0.51,-2.262 0.57,-4.707 0.19,-7.347 -0.38,-2.629 0.07,-4.958 1.33,-6.961 -0.76,-1.254 -1.01,-2.633 -0.76,-4.145 0.26,-1.5 0.13,-2.883 -0.38,-4.137 0.25,-2.507 0.13,-4.89 -0.38,-7.156 -0.5,-2.262 -0.5,-4.769 0,-7.531 1.02,-0.75 1.21,-1.445 0.57,-2.067 -0.63,-0.628 -0.57,-1.316 0.19,-2.07 -0.76,-1.754 -0.95,-3.519 -0.57,-5.273 0.38,-1.758 0.07,-3.391 -0.95,-4.891 z m -52.75,319.648 c 0.5,0.504 1.01,0.629 1.52,0.379 0.5,-0.254 0.63,0.125 0.37,1.133 -1.26,0.5 -1.89,0 -1.89,-1.512 z m 93.36,-218.75 c 0.26,0 0.39,-0.062 0.39,-0.187 0,-0.121 0.12,-0.184 0.37,-0.184 v -0.757 c -0.5,-0.247 -0.76,0.128 -0.76,1.128 z m 1.52,265.809 c 1.27,0.504 1.9,0.32 1.9,-0.559 0,-0.878 0.26,-1.566 0.76,-2.07 0,-0.504 -0.13,-0.883 -0.38,-1.133 -0.77,-0.25 -1.27,-0.062 -1.52,0.567 -0.25,0.633 -0.51,1.195 -0.76,1.699 z m -1.13,-46.309 c -0.51,-0.246 -0.77,0.129 -0.77,1.133 l 0.38,0.375 c 0.51,-0.5 0.64,-1.004 0.39,-1.508 z m -3.05,110.32 c 0,-0.25 -0.12,-0.5 -0.37,-0.76 0,0.51 -0.13,0.76 -0.38,0.76 -0.25,0 -0.38,0.25 -0.38,0.75 0.76,0 1.13,-0.25 1.13,-0.75 z m -3.03,-42.55 c 0,0.75 0.26,1.07 0.76,0.95 0.5,-0.13 0.89,-0.45 1.14,-0.95 0,-0.5 -0.25,-0.75 -0.76,-0.75 -0.25,0 -0.63,0.25 -1.14,0.75 z m 4.93,18.07 c -1.26,-0.5 -1.9,-0.12 -1.9,1.14 0.26,0.75 0.7,1 1.34,0.75 0.63,-0.25 0.94,-0.75 0.94,-1.51 z m 6.84,-41.785 c 1.51,-1.004 2.4,-1.883 2.65,-2.637 -0.5,-1 -1.01,-1.382 -1.51,-1.128 -1.27,1.253 -1.65,2.507 -1.14,3.765 z m 69.83,-111.82 c 0.76,0 1.14,-0.129 1.14,-0.375 v -1.129 c -0.77,0 -1.14,0.5 -1.14,1.504 z m 26.19,131.015 c 0.25,-0.5 0.63,-0.81 1.14,-0.93 0.5,-0.13 0.5,-0.44 0,-0.94 -0.26,-0.51 -0.44,-0.57 -0.57,-0.19 -0.13,0.37 -0.44,0.43 -0.96,0.19 0.26,0.5 0.26,0.87 0,1.12 -0.25,0.25 -0.12,0.5 0.39,0.75 z m -54.66,-146.074 c 0.25,-0.504 0.51,-0.816 0.76,-0.945 0.25,-0.125 0.38,-0.313 0.38,-0.563 -0.5,-0.257 -0.81,-0.187 -0.95,0.184 -0.12,0.379 -0.31,0.695 -0.56,0.945 z m -31.12,137.047 c 0.25,0.5 0.51,0.692 0.77,0.563 0.25,-0.121 0.37,-0.317 0.37,-0.563 v -1.133 c -0.5,-0.25 -0.76,-0.187 -0.76,0.192 0,0.371 -0.13,0.691 -0.38,0.941 z m -7.96,-41.039 c 0.25,0 0.63,-0.254 1.14,-0.758 0,-0.25 -0.14,-0.504 -0.39,-0.746 z m 3.79,8.281 c 0.51,0 0.88,-0.125 1.13,-0.375 0,-0.757 -0.25,-1.132 -0.75,-1.132 z m -41.37,-23.343 c 0.51,0 1.01,-0.504 1.52,-1.508 0,0 -0.38,0 -1.14,0 z m 4.93,83.958 c 0,0.51 0.38,0.75 1.14,0.75 0,-0.5 -0.38,-0.75 -1.14,-0.75 z m 3.41,7.53 c 0.26,0.25 0.77,0 1.52,-0.75 -0.25,-0.25 -0.44,-0.57 -0.56,-0.94 -0.13,-0.38 -0.45,-0.44 -0.96,-0.19 -0.49,1 -0.49,1.63 0,1.88 z m 3.43,12.8 c -1.02,0 -1.91,0.64 -2.66,1.89 -0.26,0.75 0,1.63 0.75,2.63 1.52,0.25 2.54,-0.62 3.04,-2.63 -0.5,-1.25 -0.88,-1.89 -1.13,-1.89 z m -8.73,-13.93 c 1.01,-0.5 1.39,-1.25 1.13,-2.26 -0.24,0 -0.44,-0.06 -0.56,-0.18 -0.13,-0.14 -0.32,-0.2 -0.57,-0.2 -0.25,0.51 -0.51,1.01 -0.76,1.51 -0.26,0.51 0,0.88 0.76,1.13 z m -3.04,-153.612 c -0.51,0.25 -0.76,0.879 -0.76,1.882 h 0.76 z m -3.04,121.988 c 1.27,0.504 2.4,0.32 3.42,-0.563 1.01,-0.878 1.77,-1.824 2.27,-2.824 0.76,-1.258 0.76,-2.511 0,-3.765 -0.75,-1.258 -1.51,-2.508 -2.27,-3.77 -1.52,0.754 -2.85,1.699 -3.99,2.828 -1.14,1.129 -1.58,2.696 -1.32,4.707 -0.26,0.754 -0.13,1.379 0.38,1.879 0.5,0.504 1.01,1.004 1.51,1.508 z m 23.15,-21.082 c -0.5,-0.504 -0.81,-0.504 -0.95,0 -0.12,0.5 -0.44,0.75 -0.94,0.75 0,0.75 -0.2,1.508 -0.57,2.262 -0.38,0.754 -0.06,1.379 0.94,1.879 1.02,-1.254 1.52,-2.883 1.52,-4.891 z m -3.41,-28.234 c -0.51,1 -0.38,1.433 0.38,1.312 0.76,-0.125 1.26,-0.562 1.51,-1.312 -0.25,-0.258 -0.31,-0.504 -0.18,-0.762 0.12,-0.25 -0.07,-0.5 -0.57,-0.746 -0.25,0.246 -0.44,0.496 -0.57,0.746 -0.13,0.258 -0.32,0.504 -0.57,0.762 z m 4.17,-88.106 c -0.25,0.5 -0.57,0.879 -0.94,1.133 -0.39,0.242 -0.32,0.496 0.18,0.75 l 1.14,-1.133 c -0.76,0 -0.88,-0.25 -0.38,-0.75 z m -7.21,128.766 c -0.5,-0.25 -0.82,-0.567 -0.94,-0.942 -0.13,-0.379 -0.45,-0.445 -0.95,-0.187 -1.27,1.25 -1.65,2.633 -1.14,4.14 1.01,0.747 1.77,0.625 2.27,-0.378 0.51,-1.004 0.76,-1.879 0.76,-2.633 z m 2.66,-52.719 c 0.5,-0.746 0.76,-1.125 0.76,-1.125 h -0.76 c 0.5,0.504 0.38,0.758 -0.38,0.758 z m -2.28,96.769 c 0.5,0 0.89,-0.12 1.14,-0.38 0,-0.5 -0.25,-0.75 -0.76,-0.75 -1.01,0 -1.13,0.37 -0.38,1.13 z m -0.75,-109.191 c 0.5,0 0.75,-0.5 0.75,-1.5 0,0 -0.25,-0.133 -0.75,-0.379 -0.52,1.008 -0.52,1.633 0,1.879 z m -167,-634.785 c 0.5,0.504 0.76,0.375 0.76,-0.375 0,-0.504 -0.13,-0.883 -0.39,-1.133 0,0.25 -0.18,0.508 -0.56,0.75 -0.38,0.254 -0.31,0.508 0.19,0.758 z m -225.06,596.012 c 2.02,0.496 3.54,0.058 4.56,-1.325 1,-1.378 1.76,-2.699 2.27,-3.949 2.03,-5.527 1.96,-10.922 -0.19,-16.191 -2.15,-5.274 -4.75,-10.035 -7.78,-14.309 -1.52,-0.504 -2.46,-0.121 -2.85,1.133 -0.38,1.25 -0.81,2.512 -1.32,3.762 -0.51,3.511 -0.95,7.09 -1.33,10.734 -0.38,3.637 -0.32,7.215 0.19,10.727 0.51,2.011 1.2,3.89 2.08,5.648 0.89,1.758 2.34,3.012 4.37,3.77 z m 18.22,-171.317 c 0,0.508 0.12,1.008 0.38,1.508 0.25,0.504 0.63,0.375 1.14,-0.375 -0.26,-0.246 -0.32,-0.504 -0.2,-0.754 0.13,-0.254 -0.06,-0.5 -0.57,-0.754 0,0.754 -0.25,0.883 -0.75,0.375 z m -4.56,-224.39 c 0.76,0.75 1.14,0.75 1.14,0 v -0.758 c -0.25,0 -0.63,0.254 -1.14,0.758 z m -3.79,409.257 c 0.5,0.754 1.07,0.942 1.7,0.571 0.64,-0.383 0.83,-0.953 0.57,-1.703 -0.76,-0.75 -1.26,-1 -1.51,-0.75 -0.51,0.254 -0.76,0.879 -0.76,1.882 z m 34.53,-69.656 1.14,-1.129 c -0.5,-0.5 -0.63,-0.75 -0.38,-0.75 -0.5,0 -0.76,0.125 -0.76,0.375 0,0.25 -0.12,0.375 -0.38,0.375 z m -90.32,-184.109 c 0.25,0.504 0.5,0.687 0.76,0.566 0.25,-0.125 0.37,-0.32 0.37,-0.566 v -0.746 h -0.76 c 0,0.242 -0.12,0.496 -0.37,0.746 z m 11.76,222.515 c 0.51,0 1.01,-0.371 1.52,-1.128 0.5,-1.758 0,-2.637 -1.52,-2.637 -0.51,0 -0.75,0.125 -0.75,0.375 0,0.254 -0.14,0.504 -0.39,0.758 0,0.496 0,0.996 0,1.504 0,0.5 0.39,0.875 1.14,1.128 z m 61.11,123.875 c 1.77,0.497 2.65,-0.132 2.65,-1.89 0.26,-0.5 0.19,-1 -0.19,-1.5 -0.38,-0.504 -0.82,-0.762 -1.33,-0.762 -1.51,0 -2.28,0.504 -2.28,1.508 0,1.008 0.38,1.887 1.15,2.644 z m -0.77,6.02 c 0,-0.254 -0.38,-0.375 -1.13,-0.375 -0.51,0.246 -0.63,0.5 -0.38,0.75 0.25,0.25 0.38,0.504 0.38,0.75 0.51,0.504 0.88,0.566 1.13,0.195 0.26,-0.383 0.26,-0.82 0,-1.32 z m -75.14,-71.164 c 0.51,-0.246 0.82,-0.625 0.95,-1.129 0.12,-0.5 -0.06,-1.004 -0.57,-1.5 0,0 -0.25,0 -0.76,0 -0.51,0.496 -0.64,1.129 -0.38,1.879 z m 82.36,97.143 c 1.01,-0.25 1.84,-0.76 2.47,-1.51 0.62,-0.75 1.19,-1.5 1.7,-2.25 0.51,-2.26 0.13,-4.02 -1.14,-5.28 -1.26,-0.75 -2.53,-1 -3.79,-0.75 -1.27,0.25 -2.53,0.63 -3.79,1.13 -2.54,2.51 -3.29,5.27 -2.28,8.28 2.02,1.51 4.29,1.64 6.83,0.38 z m -13.66,-24.854 c -1.02,-3.512 -1.14,-6.836 -0.38,-9.973 0.75,-3.136 1.01,-6.461 0.75,-9.976 -0.5,-1.012 -0.82,-1.883 -0.94,-2.645 -0.13,-0.746 0.06,-1.75 0.57,-3.004 0,-2.265 -1.14,-3.511 -3.42,-3.765 -3.29,-0.504 -5.63,-2.071 -7.03,-4.707 -1.38,-2.637 -3.09,-4.957 -5.12,-6.965 -2.02,-3.516 -4.42,-6.774 -7.21,-9.793 -2.78,-3.012 -5.19,-6.274 -7.21,-9.789 0.26,-1.25 0.13,-2.196 -0.38,-2.821 -0.51,-0.628 -0.76,-1.566 -0.76,-2.82 0,-0.508 -0.25,-0.758 -0.75,-0.758 0.5,-0.5 0.56,-0.875 0.18,-1.125 -0.38,-0.257 -0.44,-0.632 -0.18,-1.129 0.5,-2.011 0.75,-4.273 0.75,-6.777 0,-2.519 1.02,-4.519 3.04,-6.027 2.78,-2.008 4.18,-4.395 4.18,-7.157 0,-2.761 0.37,-5.394 1.13,-7.906 0.25,-2.758 -0.19,-5.082 -1.33,-6.965 -1.14,-1.879 -2.34,-3.703 -3.61,-5.461 -1.26,-1.753 -2.33,-3.636 -3.22,-5.644 -0.88,-2.004 -1.08,-4.399 -0.57,-7.149 0,-1.261 0.13,-1.89 0.38,-1.89 -0.75,-2.004 -0.89,-3.512 -0.38,-4.516 -0.51,-1.254 -0.57,-2.511 -0.19,-3.761 0.38,-1.258 0.32,-2.512 -0.18,-3.766 0.75,-2.016 0.82,-4.141 0.18,-6.399 -0.63,-2.265 -0.57,-4.394 0.19,-6.406 l -0.76,-1.133 c 0.25,-3.261 0.32,-6.519 0.19,-9.785 -0.12,-3.261 0.06,-6.527 0.57,-9.785 -0.51,-0.504 -0.51,-0.945 0,-1.324 0.51,-0.371 0.63,-0.813 0.38,-1.313 0,-1.254 0.13,-2.636 0.38,-4.14 0.25,-1.508 0,-2.895 -0.76,-4.145 0,-3.265 0.19,-6.398 0.57,-9.414 0.38,-3.012 0.19,-6.144 -0.57,-9.41 -0.25,-7.031 -0.25,-13.992 0,-20.895 0.26,-6.902 0,-13.996 -0.76,-21.273 0,-2.008 0,-3.832 0,-5.465 0,-1.625 -0.37,-3.32 -1.13,-5.082 0.25,-3.762 0.5,-7.465 0.76,-11.101 0.25,-3.641 -0.26,-7.34 -1.52,-11.11 0.25,-1.504 0.25,-3.133 0,-4.898 -0.26,-1.754 -0.39,-3.258 -0.39,-4.516 -0.5,-3.512 -0.56,-7.09 -0.18,-10.734 0.37,-3.633 0.44,-7.461 0.18,-11.481 -1.26,-1.754 -1.58,-3.511 -0.94,-5.265 0.63,-1.762 0.7,-3.641 0.19,-5.645 1.01,-8.539 1.45,-17.262 1.33,-26.176 -0.13,-8.906 -0.32,-17.757 -0.58,-26.543 1.27,-1.25 1.59,-2.629 0.96,-4.136 -0.64,-1.508 -0.45,-2.891 0.56,-4.141 -0.76,-4.519 -0.69,-8.785 0.19,-12.805 0.89,-4.015 0.96,-8.156 0.2,-12.429 0.25,-3.508 0.56,-6.899 0.94,-10.157 0.38,-3.269 0.32,-6.531 -0.18,-9.793 0.5,-0.753 0.43,-1.378 -0.2,-1.882 -0.63,-0.5 -0.82,-1.129 -0.56,-1.883 -0.26,-5.02 0.19,-9.664 1.32,-13.93 1.14,-4.269 1.46,-8.914 0.95,-13.93 0.51,-1.765 0.7,-3.519 0.57,-5.277 -0.13,-1.754 0.19,-3.387 0.95,-4.887 -0.76,-2.015 -0.76,-3.894 0,-5.652 0.76,-1.758 0.63,-3.637 -0.38,-5.641 0.25,-4.019 0.51,-7.976 0.76,-11.863 0.25,-3.89 0.38,-7.844 0.38,-11.859 -0.26,-1.258 -0.26,-2.328 0,-3.199 0.25,-0.887 0.12,-1.95 -0.38,-3.207 0.5,-0.75 0.75,-1.567 0.75,-2.442 0,-0.883 0.13,-1.82 0.39,-2.824 l -0.76,-0.379 c -0.5,-2.512 -0.38,-4.832 0.37,-6.965 0.76,-2.133 0.76,-4.328 0,-6.59 0.26,-1.254 0.58,-2.386 0.96,-3.39 0.38,-1 0.31,-2.133 -0.2,-3.391 0,-4.762 0.14,-9.535 0.39,-14.301 0.25,-4.773 0.12,-9.414 -0.39,-13.933 0.77,-1.758 0.89,-3.633 0.39,-5.649 -0.51,-2.004 -0.51,-3.89 0,-5.648 -0.51,-1.508 -0.63,-3.071 -0.39,-4.703 0.26,-1.633 0.26,-3.328 0,-5.086 0,-2.004 -0.18,-3.949 -0.56,-5.836 -0.38,-1.879 -0.32,-3.574 0.19,-5.082 -0.51,-2.004 -0.7,-4.137 -0.57,-6.403 0.12,-2.257 0.18,-4.515 0.18,-6.773 0.52,-2.762 0.45,-5.395 -0.18,-7.91 -0.63,-2.504 -0.82,-5.141 -0.57,-7.903 -0.25,-1.507 -0.12,-3.074 0.38,-4.703 0.5,-1.632 0.89,-3.203 1.13,-4.711 0.26,-1.507 0.2,-2.953 -0.18,-4.328 -0.38,-1.383 -1.58,-2.453 -3.61,-3.203 -2.53,-0.246 -4.93,0.258 -7.21,1.508 -1.26,1.504 -1.83,3.07 -1.71,4.707 0.13,1.633 0.45,3.262 0.95,4.895 0.51,1.628 1.01,3.265 1.52,4.894 0.5,1.629 0.5,3.449 0,5.457 0.25,5.774 0.32,11.481 0.19,17.133 -0.13,5.644 -0.31,11.359 -0.57,17.133 0.76,1.504 0.88,3.07 0.38,4.703 -0.51,1.633 -0.51,3.078 0,4.332 -0.51,5.773 -0.57,11.609 -0.19,17.512 0.38,5.886 -0.06,11.601 -1.33,17.125 1.01,1.504 1.21,2.886 0.57,4.144 -0.63,1.254 -0.69,2.629 -0.19,4.137 -0.5,1.512 -0.76,3.074 -0.76,4.711 0,1.629 0.26,3.199 0.76,4.703 0.25,10.797 -0.13,21.465 -1.14,32 -0.5,5.523 -0.69,11.113 -0.57,16.758 0.13,5.648 -0.44,11.109 -1.71,16.379 0,0.5 0.07,0.941 0.2,1.316 0.12,0.379 0.06,0.816 -0.2,1.32 0,0.25 0.07,0.629 0.2,1.129 0.12,0.5 -0.07,1.004 -0.57,1.504 0.25,3.012 0.12,5.899 -0.38,8.66 -0.51,2.762 -0.76,5.52 -0.76,8.282 0.25,0.757 0.31,1.632 0.19,2.64 -0.12,1.004 -0.19,2.008 -0.19,3.008 -0.76,1.508 -0.95,2.891 -0.57,4.145 0.37,1.257 0.32,2.632 -0.19,4.14 0,3.008 0.06,5.77 0.19,8.285 0.12,2.504 -0.06,5.145 -0.57,7.91 l 0.38,0.372 c 0.51,2.511 0.51,4.832 0,6.968 -0.51,2.129 -0.89,4.325 -1.14,6.582 0.25,0.254 0.31,0.563 0.19,0.946 -0.13,0.375 -0.19,0.683 -0.19,0.941 l -1.14,47.438 c 0.51,5.023 0.25,9.726 -0.76,14.117 -1.01,4.394 -1.39,9.101 -1.14,14.125 0.51,1.754 0.51,3.449 0,5.082 -0.51,1.633 -0.51,3.324 0,5.086 -0.51,5.015 -0.38,9.968 0.39,14.863 0.75,4.898 0.62,9.859 -0.39,14.871 0.25,0.758 0.32,1.633 0.19,2.641 -0.12,1.004 -0.19,2.008 -0.19,3.008 -0.51,5.023 -0.82,10.043 -0.95,15.062 -0.12,5.02 -0.31,10.043 -0.57,15.063 0.51,3.261 0.57,6.398 0.2,9.41 -0.38,3.011 -0.2,6.023 0.57,9.035 -1.01,4.269 -1.14,8.726 -0.38,13.367 0.75,4.645 1.26,9.223 1.52,13.742 0.5,4.52 0.82,9.039 0.94,13.559 0.13,4.515 0.06,8.906 -0.19,13.176 -0.25,1.004 -0.44,2.007 -0.57,3.007 -0.12,1.008 -0.44,2.012 -0.95,3.016 0.26,3.516 0.26,6.906 0,10.168 -0.25,3.258 -0.13,6.648 0.38,10.164 -0.51,5.77 -0.75,11.481 -0.75,17.125 0,5.649 -1.77,10.984 -5.32,16.008 -2.02,3.016 -2.72,6.394 -2.08,10.156 0.63,3.774 1.71,7.039 3.22,9.801 2.78,2 4.24,4.766 4.37,8.277 0.12,3.512 -0.19,6.782 -0.96,9.789 0.77,1.758 0.83,3.262 0.2,4.524 -0.63,1.254 -1.46,2.504 -2.47,3.761 -1.01,1.254 -1.84,2.512 -2.47,3.766 -0.63,1.258 -0.69,2.762 -0.18,4.516 -0.51,1.008 -1.02,2.015 -1.53,3.011 -0.5,1.004 -1.14,1.754 -1.89,2.258 0.51,1.508 0.63,2.953 0.37,4.328 -0.25,1.387 -0.12,2.707 0.38,3.957 l -0.38,1.129 -0.75,-0.375 c 0,0.254 -0.13,0.375 -0.39,0.375 -0.24,0 -0.24,0.25 0,0.754 0.52,0.754 1.14,0.754 1.91,0 0.5,2.008 1.26,3.828 2.28,5.461 1.01,1.633 1.26,3.449 0.75,5.461 0.51,0.246 0.7,0.563 0.57,0.938 -0.12,0.375 -0.19,0.695 -0.19,0.941 l 0.76,0.754 c -0.76,4.516 0.12,8.348 2.66,11.484 2.53,3.137 4.93,6.34 7.21,9.598 -0.51,1.758 -0.25,3.139 0.76,4.149 1,1 1.64,2.13 1.9,3.38 1.01,1.01 2.02,1.14 3.03,0.39 l 0.38,-0.76 c 1.01,1.75 2.03,3.38 3.03,4.89 1.02,1.51 2.16,3.01 3.42,4.52 -0.25,0 -0.38,0.38 -0.38,1.13 h 0.76 c 2.02,2.01 3.99,4.14 5.88,6.39 1.9,2.27 4.37,3.4 7.4,3.4 3.05,0.5 5.95,0.25 8.74,-0.75 2.78,-1.01 4.8,-2.89 6.07,-5.65 0.5,-3.51 0.7,-7.03 0.56,-10.55 -0.12,-3.5 0.32,-6.9 1.34,-10.164 z m 2.27,30.874 c -0.5,0.5 -0.44,0.88 0.19,1.13 0.63,0.25 1.08,0 1.33,-0.75 0,-0.25 -0.06,-0.38 -0.19,-0.38 -0.13,0 -0.19,-0.12 -0.19,-0.37 z m -55.79,-53.085 h -0.38 v 0.379 z m -14.04,-274.848 c 0,0.25 0.19,0.438 0.57,0.567 0.38,0.121 0.69,-0.067 0.95,-0.567 0,0 -0.26,-0.25 -0.77,-0.75 0,0 -0.25,0.246 -0.75,0.75 z m -30.36,-0.379 c 0.25,0 0.37,-0.062 0.37,-0.187 0,-0.125 0.14,-0.184 0.39,-0.184 l -0.39,-0.757 c 0,0.5 -0.12,0.695 -0.37,0.562 -0.26,-0.125 -0.26,0.07 0,0.566 z m 325.63,271.84 h 0.76 c 0,-0.504 -0.12,-0.883 -0.38,-1.129 z M 2296.7,490.188 c 0.76,-0.504 1.14,-1.067 1.14,-1.692 0,-0.633 0,-1.32 0,-2.074 -1.01,1.008 -1.65,2.133 -1.89,3.391 z m 9.49,423.187 c 0,0 0.25,-0.246 0.76,-0.75 v -1.504 c 0,0 -0.38,0 -1.14,0 0,0 -0.13,0.121 -0.38,0.375 0,1.004 0.25,1.633 0.76,1.879 z m 48.58,88.485 c 1.01,0.75 1.01,1.44 0,2.07 -1.01,0.62 -0.89,1.32 0.37,2.07 1.02,0.5 1.72,1.13 2.1,1.88 0.37,0.75 1.07,1.13 2.08,1.13 2.53,-0.5 4.05,-1.51 4.56,-3.01 0.5,-0.75 0.5,-1.51 0,-2.26 -0.51,-0.76 -0.89,-1.38 -1.14,-1.88 -0.51,-0.75 -1.14,-1.13 -1.9,-1.13 -0.76,0 -1.39,-0.13 -1.89,-0.37 -0.51,0.5 -1.21,0.75 -2.09,0.75 -0.9,0 -1.58,0.24 -2.09,0.75 z m -63.38,-331.329 c 0,0.5 0.12,0.817 0.38,0.942 0.25,0.125 0.5,-0.063 0.76,-0.563 0,-0.25 -0.07,-0.379 -0.19,-0.379 -0.13,0 -0.2,-0.125 -0.2,-0.371 -0.5,0.246 -0.75,0.371 -0.75,0.371 z m 23.15,80.949 c 1.01,-0.496 1.65,-0.878 1.9,-1.128 l -2.28,0.375 z m 7.21,246.989 c 0.76,0 1.14,-0.25 1.14,-0.754 0,0 -0.38,0 -1.14,0 z m -13.29,-33.129 c 1.78,0 2.67,-0.629 2.67,-1.891 0,-0.746 -0.51,-1.375 -1.52,-1.879 -0.76,0.504 -1.34,1.133 -1.71,1.879 -0.38,0.758 -0.19,1.387 0.56,1.891 z m 20.12,7.148 c -0.25,0.504 -0.13,0.821 0.38,0.946 0.5,0.125 0.89,-0.067 1.14,-0.567 0,-0.25 -0.06,-0.379 -0.19,-0.379 -0.13,0 -0.19,-0.121 -0.19,-0.371 z m -4.93,-100.898 c -0.76,0.246 -1.01,0.629 -0.76,1.129 0.25,0.496 0.63,0.629 1.14,0.371 0,-1.004 -0.13,-1.5 -0.38,-1.5 z m -9.11,135.54 c 0,-0.5 -0.13,-0.88 -0.38,-1.13 -0.51,0 -0.89,0.25 -1.14,0.75 l 0.76,0.75 c 0.26,0 0.38,-0.06 0.38,-0.18 0,-0.13 0.13,-0.19 0.38,-0.19 z m 18.59,-128.763 c 0.26,0.496 0.57,0.688 0.96,0.563 0.37,-0.129 0.69,-0.442 0.95,-0.942 0,-1.254 -0.51,-1.758 -1.52,-1.508 -0.26,0 -0.39,0.625 -0.39,1.887 z m -27.32,117.469 c 0.5,0 1.01,-0.379 1.52,-1.129 -0.51,-0.254 -0.82,-0.508 -0.95,-0.754 -0.13,-0.25 -0.44,-0.25 -0.95,0 -0.76,0.754 -0.63,1.379 0.38,1.883 z m 311.21,0.75 c 0,0 0.26,-0.121 0.77,-0.375 0,0 -0.38,-0.375 -1.15,-1.133 -0.25,0.254 -0.37,0.563 -0.37,0.945 0,0.375 0.25,0.563 0.75,0.563 z m 7.21,-91.867 c 0.51,0.25 1.02,0.316 1.52,0.191 0.51,-0.129 0.51,-0.566 0,-1.32 l -0.37,-0.371 z m -22.01,105.041 c 0.51,0.51 0.89,0.76 1.14,0.76 0,-0.76 -0.13,-1.13 -0.38,-1.13 -0.25,0 -0.51,0.13 -0.76,0.37 z m 13.29,-83.201 c 0,0.246 0.06,0.312 0.19,0.183 0.12,-0.121 0.19,-0.308 0.19,-0.562 0,-0.25 -0.07,-0.375 -0.19,-0.375 -0.13,0 -0.19,-0.125 -0.19,-0.379 z m -11.39,10.543 c 0.26,-0.254 0.38,-0.633 0.38,-1.129 -0.25,-0.254 -0.76,-0.379 -1.52,-0.379 z m -240.24,75.298 c -2.03,-1.01 -3.93,-1.01 -5.7,0 -1.51,1.01 -2.27,2.51 -2.27,4.52 0.5,1.25 1.01,2.44 1.52,3.58 0.5,1.13 1.38,1.94 2.65,2.44 1.01,-0.5 2.03,-0.94 3.04,-1.31 1.01,-0.38 1.77,-1.07 2.27,-2.08 0.76,-1.25 0.89,-2.51 0.39,-3.76 -0.51,-1.25 -1.14,-2.38 -1.9,-3.39 z m 255.8,-74.548 c 0,0 0.25,-0.247 0.76,-0.75 0,-0.504 -0.38,-0.879 -1.14,-1.129 h -0.76 c 0,0.746 0.38,1.375 1.14,1.879 z m 12.53,68.148 h -0.39 v 0.38 z m -4.94,-25.227 c 0,-2.011 -0.63,-3.261 -1.89,-3.769 -0.51,0 -0.76,0.133 -0.76,0.383 0,0.246 -0.14,0.375 -0.39,0.375 0,2.004 1.02,3.011 3.04,3.011 z m 4.55,25.607 h 0.39 z m 0,-6.778 c 0,1.508 0.64,2.008 1.9,1.508 -0.25,-0.25 -0.31,-0.51 -0.19,-0.75 0.13,-0.26 -0.06,-0.508 -0.57,-0.758 z m 1.14,8.648 c 0,-0.25 0.07,-0.43 0.2,-0.55 0.12,-0.13 0.18,-0.32 0.18,-0.57 l -1.13,-0.75 v 0.37 c -0.26,0.25 0,0.75 0.75,1.5 z m -5.69,-49.687 0.76,-0.383 v -1.125 l -1.14,0.379 z m -25.43,-65.895 c 0,0 0,-0.371 0,-1.125 0,0 -0.25,-0.125 -0.76,-0.383 -0.5,0.508 -0.25,1.008 0.76,1.508 z m -80.08,-290.277 c -0.51,0.75 -0.25,1.312 0.76,1.691 1.01,0.371 1.27,0.063 0.76,-0.941 0,-1.004 -0.12,-1.508 -0.38,-1.508 -0.26,0 -0.63,0.25 -1.14,0.758 z m -11.77,425.069 c 0.26,-0.25 0.39,-0.63 0.39,-1.13 h -0.76 z m -70.2,-131.026 c -0.26,0.504 -0.13,1.066 0.37,1.703 0.51,0.625 1.02,0.429 1.52,-0.571 0,-0.753 -0.38,-1.257 -1.14,-1.507 -0.25,0 -0.38,0.062 -0.38,0.187 0,0.125 -0.12,0.188 -0.37,0.188 z m 45.91,117.846 c 0,0.51 0.2,0.76 0.57,0.76 0.39,0 0.7,-0.13 0.95,-0.38 v -0.75 c -1.01,0 -1.52,0.12 -1.52,0.37 z m -29.6,22.22 c 0.51,0.5 1.14,0.38 1.9,-0.39 0,-0.24 -0.38,-0.74 -1.14,-1.5 -0.76,0.5 -1.01,1.13 -0.76,1.89 z m -9.86,-114.082 c 0.5,0.754 1.14,1.062 1.89,0.934 0.76,-0.125 1.27,-0.563 1.52,-1.313 0.26,-1.254 0,-2.258 -0.76,-3.012 -0.5,-0.5 -0.89,-0.629 -1.13,-0.379 -0.26,0.254 -0.63,0.379 -1.15,0.379 -0.5,0.5 -0.69,1.063 -0.57,1.696 0.13,0.629 0.2,1.195 0.2,1.695 z m 23.53,-671.684 c -0.51,0.5 -0.64,0.813 -0.39,0.938 0.26,0.129 0.26,0.437 0,0.941 0.76,-0.754 1.02,-1.254 0.76,-1.508 z m 111.2,551.575 c -0.51,0.25 -0.69,0.754 -0.57,1.504 0.13,0.757 0.44,0.882 0.95,0.378 0.51,-0.5 0.63,-0.812 0.38,-0.937 -0.25,-0.129 -0.51,-0.441 -0.76,-0.945 z m 14.42,95.629 c -0.25,0.507 -0.25,0.945 0,1.324 0.25,0.375 0.63,0.308 1.14,-0.192 0,-0.504 -0.13,-0.75 -0.38,-0.75 -0.26,0 -0.38,-0.125 -0.38,-0.382 z m -24.67,-69.649 c 0.25,-3.766 0.95,-7.344 2.09,-10.73 1.14,-3.387 1.46,-7.219 0.95,-11.485 1.01,-2.261 1.13,-4.707 0.37,-7.347 -0.75,-2.629 -2.02,-4.829 -3.79,-6.579 -0.5,-2.261 -0.63,-4.714 -0.38,-7.343 0.25,-2.641 -0.38,-4.961 -1.9,-6.965 0.51,-4.52 0.45,-9.352 -0.18,-14.5 -0.64,-5.145 -0.7,-9.852 -0.19,-14.113 0,-1.258 0.25,-2.387 0.76,-3.391 0.5,-1.008 0.63,-2.137 0.38,-3.387 -0.51,-0.761 -0.7,-1.82 -0.58,-3.203 0.13,-1.379 0.2,-2.699 0.2,-3.953 0,-1.758 0.18,-3.449 0.57,-5.082 0.37,-1.633 0.3,-3.203 -0.19,-4.707 0.25,-1.004 0.19,-2.008 -0.2,-3.02 -0.38,-1 -0.44,-2 -0.18,-3.007 0.5,-2.262 0.63,-4.641 0.38,-7.153 -0.26,-2.511 -0.13,-4.894 0.37,-7.152 -0.5,-2.762 -0.69,-5.399 -0.57,-7.902 0.13,-2.516 0.39,-5.024 0.76,-7.54 0.38,-2.503 0.64,-5.078 0.76,-7.71 0.13,-2.637 0.06,-5.215 -0.19,-7.723 -0.5,-3.008 -1.07,-5.77 -1.71,-8.281 -0.63,-2.512 -0.82,-5.27 -0.56,-8.282 -0.51,-0.504 -0.64,-1.195 -0.39,-2.074 0.26,-0.879 0.39,-1.691 0.39,-2.445 0.5,-4.27 1.01,-8.535 1.51,-12.805 0.51,-4.265 1.01,-8.531 1.52,-12.801 -0.51,-0.754 -0.95,-1.504 -1.33,-2.257 -0.37,-0.754 -1.07,-1.379 -2.09,-1.879 -1.26,-0.254 -2.53,-0.321 -3.79,-0.188 -1.26,0.121 -2.4,0.563 -3.42,1.313 -2.27,2.761 -2.91,5.777 -1.89,9.035 1.01,3.265 1.14,6.273 0.38,9.039 -0.51,1.508 -0.7,3.07 -0.57,4.703 0.12,1.633 0.06,3.328 -0.19,5.082 0,1.758 -0.19,3.391 -0.57,4.898 -0.38,1.508 -0.45,3.266 -0.19,5.27 0.51,1.262 0.88,2.699 1.14,4.332 0.25,1.633 0.12,3.07 -0.38,4.332 0.25,2.508 0.5,5.02 0.76,7.527 0.25,2.508 -0.13,4.891 -1.14,7.157 0.5,3.261 0.5,6.398 0,9.41 -0.51,3.012 -0.51,6.148 0,9.414 -0.51,4.516 -1.01,9.098 -1.52,13.742 -0.51,4.641 -0.51,9.473 0,14.496 -1.01,1.754 -1.01,3.512 0,5.27 1.01,1.761 0.88,3.383 -0.38,4.89 0.76,1.258 0.95,2.383 0.57,3.391 -0.38,1.004 -0.82,2.133 -1.33,3.391 -0.5,3.011 -0.38,6.082 0.38,9.222 0.76,3.137 0.5,6.211 -0.76,9.227 0.26,2.004 -0.06,3.89 -0.95,5.648 -0.88,1.758 -1.07,3.766 -0.56,6.02 -0.51,1.508 -1.65,3.015 -3.42,4.519 -2.78,-0.25 -4.55,0.883 -5.32,3.387 -0.75,2.516 -1.77,4.652 -3.03,6.406 -0.76,2.762 -1.01,5.836 -0.76,9.219 0.25,3.395 1.39,6.465 3.41,9.23 1.78,1.254 3.42,1.879 4.94,1.879 1.26,-0.25 2.27,-0.879 3.04,-1.879 0.75,-1.007 1.64,-1.382 2.65,-1.132 -1.26,3.011 -2.08,6.402 -2.47,10.168 -0.38,3.761 0.57,7.148 2.85,10.164 0.51,1.254 1.39,2.32 2.66,3.195 1.26,0.883 2.53,1.32 3.79,1.32 2.28,0 4.24,-0.879 5.89,-2.632 1.64,-1.758 2.84,-3.641 3.6,-5.649 z m -7.97,-562.5 c 2.78,-0.504 4.62,-1.945 5.5,-4.328 0.89,-2.387 1.84,-4.578 2.85,-6.59 2.03,-4.766 2.53,-9.851 1.52,-15.246 -1.01,-5.402 -1.39,-10.609 -1.14,-15.629 -0.51,-2.512 -2.4,-4.641 -5.69,-6.398 -0.51,0 -1.08,-0.063 -1.71,-0.188 -0.63,-0.129 -1.2,0.063 -1.71,0.567 -2.28,4.011 -3.92,8.218 -4.93,12.613 -1.01,4.387 -1.78,8.848 -2.28,13.363 l 0.38,0.375 c 0,3.016 0.06,6.149 0.19,9.414 0.13,3.266 1.07,6.27 2.85,9.035 1.01,1.758 2.4,2.762 4.17,3.012 z m -6.45,43.68 c 0.25,-2.266 0,-4.649 -0.76,-7.156 -1.26,-1.008 -2.85,-1.637 -4.74,-1.879 -1.9,-0.258 -3.61,0.117 -5.13,1.125 -1.77,1.254 -2.6,2.886 -2.47,4.894 0.13,2.008 0.45,3.891 0.95,5.649 0.77,3.511 0.83,6.773 0.2,9.789 -0.64,3.011 -0.58,6.019 0.19,9.035 -0.51,2.008 -1.02,3.953 -1.52,5.836 -0.51,1.879 -0.64,3.828 -0.38,5.832 l 0.38,0.383 c -0.51,3.007 -0.7,6.086 -0.58,9.218 0.13,3.141 -0.06,6.086 -0.56,8.848 0.5,1.008 0.44,1.949 -0.2,2.828 -0.63,0.875 -0.68,1.817 -0.18,2.82 -0.5,0.754 -0.57,1.571 -0.19,2.45 0.37,0.879 0.44,1.824 0.19,2.82 0.5,1.262 0.57,2.695 0.18,4.336 -0.37,1.629 -0.31,3.074 0.2,4.328 -0.26,4.016 -0.38,8.035 -0.38,12.047 0,4.016 -0.5,7.91 -1.52,11.672 0.76,1.758 0.63,3.511 -0.38,5.269 0.51,2.262 0.56,4.27 0.19,6.024 -0.38,1.758 -0.82,3.636 -1.33,5.652 0.25,4.016 0.19,7.906 -0.19,11.668 -0.38,3.766 -0.44,7.406 -0.19,10.922 0,2.512 -0.38,4.769 -1.13,6.777 0.75,4.02 0.69,7.719 -0.2,11.106 -0.88,3.39 -1.32,6.965 -1.32,10.734 -0.51,2.258 -0.51,4.703 0,7.34 0.5,2.637 0.63,5.082 0.37,7.34 -0.5,5.265 -0.44,10.66 0.2,16.187 0.63,5.524 -0.57,10.547 -3.61,15.063 -2.28,3.765 -3.35,7.91 -3.23,12.426 0.13,4.515 -0.32,8.906 -1.32,13.171 0.25,1.512 0.25,2.954 0,4.332 -0.26,1.383 -0.13,2.704 0.37,3.958 -0.25,1.003 -0.12,2.003 0.38,3.007 0.51,1.004 0.51,2.137 0,3.391 0.76,5.019 1.59,10.105 2.47,15.246 0.89,5.145 3.48,9.356 7.78,12.617 1.27,0.504 2.4,0.375 3.41,-0.375 1.02,-0.754 2.03,-1.379 3.04,-1.886 1.78,-2.004 3.04,-4.145 3.8,-6.403 0.75,-2.258 1.52,-4.515 2.27,-6.773 0.77,-6.278 1.65,-12.426 2.66,-18.446 1.02,-6.027 1.02,-12.429 0,-19.207 0,-2.511 -0.13,-5.019 -0.38,-7.531 -0.25,-2.508 -0.25,-5.019 0,-7.527 l -0.38,-0.379 c 0.26,-1.504 0.32,-3.137 0.19,-4.887 -0.13,-1.762 -0.56,-3.265 -1.32,-4.519 0.5,-3.77 0.63,-7.723 0.37,-11.864 -0.25,-4.148 -0.5,-8.281 -0.75,-12.425 -0.26,-4.141 -0.39,-8.157 -0.39,-12.047 0,-3.891 0.39,-7.719 1.14,-11.485 0.76,-4.273 1.08,-8.468 0.95,-12.609 -0.13,-4.148 -0.31,-8.352 -0.56,-12.621 0.25,-3.512 0.5,-7.082 0.75,-10.727 0.25,-3.636 0.13,-7.218 -0.38,-10.734 0,-6.024 0.38,-11.984 1.14,-17.883 0.76,-5.898 0.51,-11.859 -0.76,-17.879 -0.5,-7.031 -0.63,-13.996 -0.38,-20.898 0.26,-6.899 0.51,-13.742 0.76,-20.524 0.5,-1.254 0.57,-2.629 0.19,-4.136 -0.37,-1.508 -0.44,-2.883 -0.19,-4.141 0.76,-3.27 1.02,-6.594 0.76,-9.984 -0.26,-3.379 0.26,-6.457 1.52,-9.215 z m -28.84,564 c 0.5,-0.254 0.63,-0.438 0.38,-0.567 -0.26,-0.125 -0.38,-0.441 -0.38,-0.937 l -0.76,0.375 0.76,1.129"
         style="fill:#b4ffef;fill-opacity:1;fill-rule:nonzero;stroke:none"
         id="path74"
         inkscape:export-filename="../../Documents/SprayPaint/pink-drips-4.svg"
         inkscape:export-xdpi="500"
         inkscape:export-ydpi="500" />
    </g>
  </g>
</svg>
