<?xml version="1.0" encoding="UTF-8" standalone="no"?>
<!-- Created with Inkscape (http://www.inkscape.org/) -->

<svg
   version="1.1"
   id="svg32"
   width="448"
   height="314.66666"
   viewBox="0 0 448 314.66666"
   sodipodi:docname="Spraypaint_Drips_Free_Vector.svg"
   inkscape:export-filename="Spraypaint_Drips_Free_Vector.eps.svg"
   inkscape:export-xdpi="300"
   inkscape:export-ydpi="300"
   inkscape:version="1.2.2 (b0a8486, 2022-12-01)"
   xmlns:inkscape="http://www.inkscape.org/namespaces/inkscape"
   xmlns:sodipodi="http://sodipodi.sourceforge.net/DTD/sodipodi-0.dtd"
   xmlns="http://www.w3.org/2000/svg"
   xmlns:svg="http://www.w3.org/2000/svg">
  <defs
     id="defs36" />
  <sodipodi:namedview
     id="namedview34"
     pagecolor="#ffffff"
     bordercolor="#000000"
     borderopacity="0.25"
     inkscape:showpageshadow="2"
     inkscape:pageopacity="0.0"
     inkscape:pagecheckerboard="0"
     inkscape:deskcolor="#d1d1d1"
     showgrid="false"
     inkscape:zoom="6.6085427"
     inkscape:cx="189.83005"
     inkscape:cy="255.88092"
     inkscape:window-width="1176"
     inkscape:window-height="770"
     inkscape:window-x="75"
     inkscape:window-y="25"
     inkscape:window-maximized="0"
     inkscape:current-layer="g42" />
  <g
     id="g40"
     inkscape:groupmode="layer"
     inkscape:label="Page 1"
     transform="matrix(1.3333333,0,0,-1.3333333,0,314.66667)"
     style="display:inline">
    <g
       id="g42"
       transform="scale(0.1)"
       style="display:inline">
      <path
         d="m 2587.79,1685.89 c -0.24,-0.48 -0.49,-0.92 -0.75,-1.34 -0.48,-0.75 -0.72,-1.6 -0.72,-2.54 0.57,0.75 1.14,1.55 1.71,2.4 0.33,0.48 0.49,0.97 0.51,1.48 z m 59,0 c -0.15,-1.93 -0.28,-3.83 -0.39,-5.71 -0.2,-3.11 -0.29,-6.17 -0.29,-9.19 0,-3.01 0.48,-6.02 1.43,-9.03 -0.39,-7.35 -0.67,-14.27 -0.86,-20.76 -0.19,-6.5 -0.09,-13.61 0.28,-21.32 -0.76,-2.08 -0.99,-4.1 -0.71,-6.08 0.29,-1.97 0.24,-4.19 -0.14,-6.63 -0.38,-7.16 -0.33,-14.27 0.14,-21.33 0.48,-7.06 0.71,-14.16 0.71,-21.32 -0.76,-2.07 -1.04,-4.43 -0.85,-7.06 0.19,-2.64 -0.09,-5.09 -0.85,-7.35 -0.57,-5.64 -0.38,-11.29 0.56,-16.94 0.96,-5.65 1.05,-11.49 0.29,-17.51 0.95,-7.53 1.52,-15.39 1.71,-23.58 0.19,-8.19 0.57,-15.96 1.14,-23.3 -0.57,-2.07 -0.57,-3.96 0,-5.65 0.57,-1.69 0.47,-3.39 -0.29,-5.08 0.19,-3.21 0.29,-6.64 0.29,-10.32 0,-3.66 -0.38,-6.92 -1.14,-9.74 0.76,-0.38 1.14,-0.89 1.14,-1.55 0,-0.66 0.09,-1.37 0.28,-2.12 v -29.94 c -0.95,-3.2 -1.04,-6.54 -0.28,-10.02 0.75,-3.48 0.75,-6.83 0,-10.03 0,-1.32 0.19,-2.54 0.57,-3.67 0.38,-1.13 0.28,-2.26 -0.29,-3.39 0.76,-3.58 0.9,-7.2 0.43,-10.88 -0.48,-3.66 -0.62,-7.1 -0.43,-10.3 1.14,-3.02 1.47,-6.07 1,-9.18 -0.47,-3.11 -0.43,-5.98 0.14,-8.61 -1.33,-3.77 -1.84,-7.35 -1.56,-10.74 0.28,-3.39 0.33,-6.77 0.14,-10.17 -0.38,-1.12 -0.57,-3.85 -0.57,-8.19 0,-4.32 0.04,-8.98 0.15,-13.97 0.09,-5 0.18,-9.61 0.28,-13.85 0.09,-4.23 0.04,-6.92 -0.15,-8.04 -0.95,-2.64 -1.13,-5.42 -0.56,-8.33 0.56,-2.92 0.94,-5.8 1.13,-8.62 -0.38,-1.32 0.1,-2.5 1.43,-3.53 1.33,-1.03 2.28,-2.31 2.84,-3.81 0.95,-0.94 1.81,-1.27 2.56,-0.99 0.77,0.28 1.62,0.61 2.56,0.99 1.33,2.07 1.48,4.19 0.44,6.35 -1.05,2.17 -1.66,4.38 -1.86,6.64 -0.76,0.94 -0.76,1.88 0,2.82 -0.37,1.89 -0.8,3.72 -1.28,5.51 -0.47,1.79 -0.33,3.53 0.43,5.23 -0.19,0.94 -0.29,3.39 -0.29,7.34 0,3.95 0.06,8.24 0.15,12.85 0.09,4.61 0.28,8.89 0.57,12.85 0.28,3.95 0.52,6.4 0.71,7.34 v 1.98 8.19 c -0.95,1.69 -1.19,3.39 -0.71,5.08 0.47,1.7 0.71,3.59 0.71,5.65 0.57,2.45 0.85,5.04 0.85,7.77 0,2.73 -0.09,5.51 -0.28,8.33 -0.19,2.82 -0.34,5.6 -0.43,8.33 -0.09,2.73 0.05,5.42 0.43,8.05 0.38,2.83 0.38,5.56 0,8.19 -0.38,2.64 -0.38,5.27 0,7.91 0,2.07 -0.05,3.86 -0.14,5.37 -0.1,1.5 -0.34,3.19 -0.72,5.08 0.2,8.47 0.24,16.66 0.15,24.57 -0.1,7.91 -0.05,16 0.14,24.29 0.57,3.58 0.71,7.16 0.43,10.73 -0.29,3.58 -0.52,7.16 -0.72,10.73 0.76,1.51 0.72,3.25 -0.14,5.23 -0.85,1.98 -0.8,3.72 0.14,5.23 0,7.34 -0.56,14.4 -1.71,21.18 0.39,3.2 0.43,6.59 0.15,10.17 -0.28,3.57 -0.52,6.96 -0.71,10.16 0.19,2.26 0.14,4.38 -0.15,6.35 -0.28,1.98 -0.23,4.1 0.15,6.36 -0.58,3.2 -0.86,6.17 -0.86,8.9 0,2.73 -0.19,5.69 -0.57,8.89 0.38,3.77 0.76,7.4 1.14,10.87 0.38,3.49 0.48,7.11 0.29,10.88 0.76,1.69 0.99,3.15 0.71,4.38 -0.28,1.22 -0.52,2.58 -0.71,4.09 0.76,2.45 0.95,4.95 0.56,7.49 -0.37,2.54 -0.56,5.13 -0.56,7.76 -0.76,4.15 -1.05,8.48 -0.86,13 0.38,2.63 0.67,5.22 0.86,7.76 0.19,2.54 0.38,5.23 0.56,8.05 -0.75,6.78 -0.71,13.61 0.15,20.47 0.85,6.88 1.09,13.89 0.71,21.05 -1.14,3.2 -1.57,6.45 -1.28,9.74 0.29,3.3 0.33,6.55 0.14,9.74 0.08,0.64 0.14,1.27 0.21,1.91 z m 38.89,0 v -0.5 c 0,-0.75 0.05,-1.5 0.14,-2.25 0.1,-0.75 0.52,-1.13 1.29,-1.13 v 0.28 c -0.77,0.57 -1.09,1.32 -1,2.26 0.05,0.5 0.04,0.95 -0.05,1.34 z m 7.96,0 0.59,-3.88 v 0.28 l -0.58,3.6 z m 3.46,0 c 0.4,-0.33 0.95,-0.5 1.68,-0.5 0.44,0 0.79,0.17 1.06,0.5 z m 27.03,0 c 0.1,-1.23 0.09,-2.53 -0.01,-3.88 -0.57,-0.75 -1,-1.28 -1.28,-1.56 -0.29,-0.27 -0.24,-0.89 0.14,-1.83 v -12.71 c 0.57,-1.13 0.85,-2.21 0.85,-3.25 0,-1.03 -0.09,-2.07 -0.28,-3.11 -0.19,-1.03 -0.28,-2.01 -0.28,-2.96 0,-0.94 0.28,-1.88 0.85,-2.82 -0.38,-11.11 -0.38,-21.84 0,-32.2 0.19,-0.94 0.04,-1.74 -0.43,-2.4 -0.48,-0.66 -0.33,-1.27 0.43,-1.83 0,-6.41 -0.24,-12.81 -0.72,-19.21 -0.47,-6.4 -0.04,-12.8 1.29,-19.21 -0.38,-1.31 -0.38,-2.44 0,-3.39 -0.19,-5.46 -0.14,-10.92 0.13,-16.38 0.29,-5.46 0.06,-10.64 -0.7,-15.53 0.38,-3.77 0.57,-7.39 0.57,-10.87 0,-3.48 -0.1,-6.83 -0.29,-10.03 0.95,-2.45 1.19,-4.94 0.71,-7.48 -0.47,-2.54 -0.23,-4.85 0.72,-6.92 -0.58,-6.59 -0.81,-13.14 -0.72,-19.63 0.1,-6.5 -0.14,-13.04 -0.71,-19.63 0.95,-5.65 1,-11.2 0.15,-16.67 -0.86,-5.46 -1.86,-11.01 -2.99,-16.66 0.38,-0.94 1.04,-1.6 1.99,-1.98 0.95,-0.37 1.9,-0.37 2.84,0 1.91,0.76 3.19,1.84 3.85,3.25 0.66,1.41 1.14,2.97 1.42,4.66 0.29,1.7 0.48,3.39 0.57,5.09 0.1,1.69 0.43,3.29 1,4.8 0,3.76 -0.1,7.34 -0.29,10.74 -0.19,3.38 -0.28,6.86 -0.28,10.44 0.95,1.13 1.33,2.26 1.14,3.39 -0.19,1.13 -0.1,2.07 0.28,2.82 -0.38,2.45 -0.8,4.85 -1.28,7.21 -0.47,2.35 -0.33,4.75 0.43,7.2 -0.38,3.01 -0.24,5.88 0.42,8.61 0.67,2.73 0.53,5.7 -0.42,8.9 -0.38,6.02 -0.66,12.05 -0.85,18.07 -0.2,6.03 -0.1,12.05 0.28,18.08 0.76,2.64 0.95,5.41 0.57,8.33 -0.38,2.92 -0.57,5.98 -0.57,9.18 0,4.14 0.05,8.38 0.14,12.71 0.09,4.32 -0.23,8.66 -1,12.99 -0.37,6.59 -0.42,13.7 -0.14,21.32 0.29,7.63 0.33,14.74 0.14,21.32 l 0.86,4.53 c -0.38,0.37 -0.57,0.98 -0.57,1.83 0,0.85 0.38,1.27 1.14,1.27 h -1.14 c -0.19,1.13 0.29,1.89 1.42,2.26 1.14,0.38 1.9,1.04 2.28,1.97 1.14,-1.12 1.14,-1.87 0,-2.25 l -0.57,0.56 c 0.19,-0.37 0.38,-0.79 0.57,-1.27 0.19,-0.47 0.48,-0.89 0.86,-1.27 v 1.98 c 0.37,-0.38 0.8,-0.76 1.28,-1.13 0.47,-0.38 0.89,-0.85 1.28,-1.41 l -0.57,-0.85 h 0.57 c 0.38,-0.56 0.38,-0.94 0,-1.13 -0.39,-0.19 -0.48,-0.37 -0.29,-0.56 0.76,0 1.33,0.47 1.71,1.4 0.38,0.95 1.14,1.05 2.28,0.29 v 0.85 c 0.18,0.75 0.66,1.18 1.42,1.27 0.76,0.09 1.42,0.33 2,0.7 l 0.56,-0.84 1.15,0.84 h -1.43 c -0.19,0.95 0,1.32 0.57,1.13 0.57,-0.18 1.04,0.1 1.42,0.85 0.57,-0.37 0.81,-0.7 0.71,-0.99 -0.09,-0.28 0.15,-0.33 0.72,-0.14 0.57,-0.19 1.04,-0.04 1.42,0.43 0.38,0.47 0.85,0.42 1.42,-0.15 0.38,0.57 0.81,1.18 1.28,1.84 0.48,0.66 0.71,1.46 0.71,2.4 -0.38,0.75 -0.75,1.46 -1.13,2.12 -0.39,0.66 -1.05,1.17 -2,1.55 -0.95,0.38 -1.85,0.14 -2.7,-0.71 -0.86,-0.84 -1.57,-1.64 -2.14,-2.39 -0.94,0.75 -1.94,1.55 -2.99,2.39 -1.04,0.85 -2.23,1.27 -3.55,1.27 -1.14,-0.37 -2,-0.98 -2.57,-1.83 -0.57,-0.85 -1.09,-1.74 -1.56,-2.69 -0.48,-0.93 -0.95,-1.83 -1.42,-2.68 -0.48,-0.85 -1.19,-1.36 -2.14,-1.55 -0.76,2.07 -1.09,4.19 -1,6.36 0.1,2.16 0.24,4.19 0.43,6.07 -0.76,6.02 -0.81,12.23 -0.14,18.64 0.43,4.1 0.56,8.12 0.4,12.07 z m 11.96,0 -0.59,-1.62 h 0.29 l 0.46,1.62 z m 5.03,0 c -0.14,-0.18 -0.39,-0.34 -0.77,-0.5 0.56,-0.75 1.23,-0.98 1.99,-0.7 0.75,0.28 1.33,0.14 1.71,-0.42 0.56,0.75 1.09,1.12 1.56,1.12 0.44,0 0.84,0.17 1.2,0.5 z m 6.64,0 c 0.18,-0.05 0.28,-0.12 0.28,-0.21 -0.03,0.07 -0.06,0.14 -0.08,0.21 z m -224.35,-69.97 -0.57,1.13 h 0.57 z m 7.97,53.38 c 0.19,0.75 0.66,1.18 1.42,1.27 0.76,0.1 1.14,-0.33 1.14,-1.27 0,-1.51 -0.28,-2.26 -0.85,-2.26 -0.95,0 -1.47,0.24 -1.57,0.71 -0.1,0.47 -0.14,0.98 -0.14,1.55 z m -7.12,-203.91 c 0,-0.38 0.19,-0.57 0.57,-0.57 -0.38,-0.37 -0.67,-0.56 -0.85,-0.56 v 1.13 z m -1.42,96.31 0.57,1.41 v -1.13 z m -5.98,120.59 c 0.95,-0.18 1.71,-0.75 2.28,-1.69 -0.38,-0.76 -0.66,-1.65 -0.86,-2.69 -0.19,-1.03 -0.95,-1.08 -2.28,-0.14 -0.37,0.19 -0.76,0.52 -1.13,0.99 -0.38,0.47 -0.57,0.99 -0.57,1.55 0.19,0.95 1.04,1.6 2.56,1.98 z m 28.18,-273.39 0.57,-1.97 v -2.55 z m 5.41,28.24 v -0.28 h -0.57 v 0.28 z m -4.27,-142.34 c 0,0.75 0.1,1.23 0.29,1.41 -0.19,-0.18 -0.24,-0.38 -0.15,-0.56 0.1,-0.19 0.05,-0.47 -0.14,-0.85 z m -48.11,269.44 0.57,0.56 -0.28,-0.28 z m 17.93,-30.22 c 0.39,0 0.67,0.09 0.86,0.28 0.19,0.19 0.28,0.09 0.28,-0.28 0,-0.56 -0.09,-0.8 -0.28,-0.71 -0.19,0.1 -0.47,-0.05 -0.86,-0.42 z m -38.43,135.84 c 0.38,0.38 0.47,0.71 0.29,0.99 -0.2,0.29 0,0.61 0.57,0.99 z m 31.6,-99.41 0.58,1.13 -0.29,-0.85 z m 0,56.48 c 0,-0.37 -0.28,-0.84 -0.85,-1.41 z m -1.71,-3.66 c -0.19,0.18 -0.14,0.52 0.15,0.98 0.28,0.47 0.52,0.89 0.71,1.27 z m 1.71,-48.86 1.43,3.1 z m 243.42,87.83 c 0.57,-0.57 1,-1.18 1.28,-1.84 0.28,-0.65 0.61,-1.36 0.99,-2.11 -1.32,1.5 -2.08,2.82 -2.27,3.95 z m 1.14,-8.47 -0.29,1.12 0.29,-0.84 z m 18.22,-169.18 c 0.38,0.38 0.47,0.8 0.28,1.27 -0.19,0.47 -0.28,0.89 -0.28,1.27 0,1.7 -0.29,3.39 -0.86,5.09 -0.56,1.69 -1.04,3.2 -1.42,4.51 0.76,-2.06 1.37,-4.18 1.85,-6.35 0.48,-2.17 0.9,-4.47 1.28,-6.92 z m -12.81,188.66 -6.55,8.2 0.85,-0.57 z m 249.68,-67.21 -0.58,0.28 h 0.58 z m 20.49,-50.56 0.85,-0.56 -1.13,0.56 z m 13.67,123.71 c -0.38,0 -0.76,0.09 -1.14,0.27 -0.38,0.19 -0.48,0.48 -0.29,0.85 0.57,0 1.05,-0.37 1.43,-1.12 z m -15.37,-6.78 c 0.18,0.38 0.28,0.38 0.28,0 z m 2.55,-1.13 c 0.19,-0.19 0,-0.05 -0.57,0.42 -0.56,0.47 -1.13,0.52 -1.7,0.14 v 0.57 c 0.57,0 0.99,-0.1 1.28,-0.28 0.28,-0.19 0.62,-0.48 0.99,-0.85 z m -2.84,0.85 v 0.84 l 0.29,-0.28 v -0.28 z m 2.84,-105.63 c -0.37,1.5 -0.94,2.77 -1.7,3.81 -0.76,1.03 -1.05,2.3 -0.85,3.81 0.94,-0.94 1.32,-1.98 1.13,-3.11 -0.19,-1.12 0.29,-2.16 1.42,-3.1 z m -160.28,-46.6 v 0.56 z m 2.28,-5.93 c -0.38,0 -0.52,0.09 -0.43,0.28 0.1,0.18 0.15,0.47 0.15,0.84 z m -0.28,1.41 c 0.18,0 0.28,-0.05 0.28,-0.14 0,-0.1 -0.1,-0.15 -0.28,-0.15 z m -28.75,157.87 v -0.28 h -0.29 v 1.13 z m 39.85,-61.29 c -0.38,0.2 -0.67,0.29 -0.85,0.29 -0.19,0 -0.48,0.09 -0.86,0.28 z m 1.42,-2.25 c -0.57,0 -1.04,0.75 -1.42,2.25 z m -123.56,61.57 v -0.29 z m 3.14,-41.24 -1.43,2.82 1.43,-2.54 z m -3.14,40.95 c 0.38,0 0.57,-0.37 0.57,-1.13 z m 16.23,-145.73 c -0.57,-0.38 -1.09,-0.33 -1.57,0.15 -0.47,0.46 -1.09,0.42 -1.84,-0.15 -0.77,0.76 -1.19,1.65 -1.28,2.69 -0.1,1.03 -0.05,2.02 0.13,2.96 0.58,1.32 1.76,2.22 3.57,2.68 1.8,0.47 2.89,-0.33 3.27,-2.4 0.57,-2.63 -0.19,-4.62 -2.28,-5.93 z m -1.42,103.65 c 0,-0.37 -0.1,-0.46 -0.29,-0.28 -0.19,0.19 -0.28,0.47 -0.28,0.85 z m -0.57,1.13 v -0.56 z m -0.57,12.99 c 0.38,0.95 0.81,1.08 1.28,0.42 0.47,-0.65 0.53,-1.17 0.14,-1.55 h -1.42 c -0.38,0 -0.57,0.15 -0.57,0.43 0,0.28 0.19,0.52 0.57,0.7 z m 255.65,-223.4 c 0.39,-1.13 0.48,-1.78 0.29,-1.97 h -0.29 z m -291.24,239.22 0.29,-1.7 z m 5.98,0 c -0.38,1.13 -0.85,1.65 -1.42,1.55 -0.57,-0.09 -1.24,0.15 -2,0.71 -0.57,0.37 -0.99,0.8 -1.28,1.27 -0.28,0.47 -0.71,0.89 -1.28,1.27 v -2.26 c -0.95,0.57 -1.42,1.6 -1.42,3.11 0.19,0.38 0.19,0.7 0,0.99 -0.19,0.28 -0.43,0.56 -0.71,0.84 -0.29,0.28 -0.38,0.53 -0.29,0.71 0.09,0.19 0.62,0.37 1.56,0.57 0,0.94 0.1,1.59 0.29,1.97 0.19,0.38 0.47,0.85 0.86,1.41 1.52,1.51 3.42,1.6 5.69,0.29 0.76,-0.76 1.28,-1.46 1.56,-2.12 0.29,-0.66 0.72,-1.46 1.29,-2.41 0.19,-0.37 0.05,-0.89 -0.43,-1.55 -0.48,-0.66 -0.23,-1.17 0.72,-1.55 0,-0.75 -0.34,-1.22 -1,-1.41 -0.67,-0.19 -1.19,-0.47 -1.57,-0.85 -0.19,-0.19 -0.29,-0.51 -0.29,-0.99 0,-0.47 -0.09,-0.99 -0.28,-1.55 z m -7.97,-1.7 c -0.19,0.19 -0.24,0.39 -0.14,0.57 0.09,0.19 0.33,0.09 0.71,-0.29 v -0.28 z m 3.7,1.14 c 0.57,-0.38 0.85,-0.81 0.85,-1.28 0,-0.47 0,-0.89 0,-1.27 l -0.85,-0.56 z m 12.81,-304.74 c -0.37,0.75 -0.57,1.79 -0.57,3.1 0.76,-0.56 0.95,-1.6 0.57,-3.1 z m 31.32,171.71 0.28,-2.26 z m -1.42,42.65 0.28,-1.13 v -0.28 z m 0.28,-14.12 1.42,-1.7 v -0.28 z m -2.84,-237.52 c 0.75,0 1.37,0.04 1.84,0.14 0.48,0.09 0.81,-0.34 1,-1.27 0.95,-1.89 1.09,-3.63 0.42,-5.23 -0.66,-1.6 -1.75,-3.16 -3.26,-4.66 -0.96,-0.19 -1.48,0.14 -1.57,0.99 -0.1,0.85 -0.33,1.55 -0.72,2.12 -0.38,1.51 -0.47,2.96 -0.28,4.37 0.19,1.42 1.04,2.59 2.57,3.54 z m 7.68,35.59 c 0.57,-0.38 0.76,-0.81 0.57,-1.28 -0.19,-0.47 0,-0.89 0.57,-1.27 0.38,-1.51 0.24,-2.87 -0.43,-4.1 -0.66,-1.22 -1.47,-2.3 -2.42,-3.25 -0.95,-0.18 -1.47,-0.13 -1.56,0.15 -0.1,0.28 -0.24,0.61 -0.43,0.98 -1.33,2.45 -1.33,4.71 0,6.79 0.19,0.19 0.62,0.51 1.28,0.98 0.66,0.48 1.37,0.62 2.14,0.43 0,0.19 0.09,0.37 0.28,0.57 z m 10.82,209.84 c -0.57,0.56 -1.1,1.03 -1.57,1.41 -0.47,0.37 -0.71,0.94 -0.71,1.69 z m 7.97,87.55 c -0.76,-0.19 -1.19,0.19 -1.28,1.13 -0.1,0.94 -0.24,1.6 -0.43,1.98 -1.14,0.94 -2.23,1.92 -3.27,2.96 -1.05,1.04 -1.48,2.22 -1.29,3.53 1.15,-0.94 2.09,-2.12 2.85,-3.53 0.76,-1.41 1.43,-2.68 1.99,-3.82 0.2,-0.37 0.48,-0.7 0.86,-0.98 0.38,-0.29 0.57,-0.71 0.57,-1.27 z m 0,4.23 c -0.76,0.2 -1.33,0.95 -1.71,2.26 0.38,-0.37 0.76,-0.75 1.14,-1.13 0.38,-0.37 0.57,-0.75 0.57,-1.13 z m -18.51,-236.96 c 1.9,0.57 3.04,0 3.42,-1.69 0.38,-1.32 0.29,-2.49 -0.28,-3.53 -0.57,-1.03 -1.24,-1.92 -2,-2.68 -0.19,-0.38 -0.52,-0.47 -0.99,-0.28 -0.48,0.19 -1,0.28 -1.57,0.28 -1.33,1.5 -1.71,3.1 -1.14,4.8 0,1.69 0.86,2.73 2.56,3.1 z m -35.01,181.32 c -0.95,0.38 -1.66,0.95 -2.14,1.7 -0.48,0.75 -0.9,1.7 -1.28,2.82 -0.38,1.13 -0.1,1.94 0.85,2.41 0.95,0.46 1.52,1.27 1.71,2.4 0.95,0 1.99,-0.1 3.14,-0.29 1.13,-0.18 1.99,-0.84 2.56,-1.97 0.57,-1.13 0.66,-2.08 0.28,-2.83 -0.38,-0.75 -0.85,-1.6 -1.42,-2.54 -0.38,-0.95 -0.95,-1.37 -1.71,-1.27 -0.76,0.1 -1.42,-0.05 -1.99,-0.43 z m -19.65,68.91 c -0.38,0 -0.57,0.06 -0.57,0.15 0,0.09 0.1,0.14 0.29,0.14 h 0.57 v -0.29 z m 19.36,-110.7 -0.85,-2.55 z m 25.34,-40.67 c -0.19,0.19 -0.43,0.37 -0.71,0.56 -0.28,0.19 -0.53,0.1 -0.71,-0.28 0,0.75 -0.33,1.13 -1,1.13 -0.66,0 -0.81,0.37 -0.43,1.13 l -0.85,0.28 c 0.38,0.94 0.57,1.79 0.57,2.55 0,0.75 0.47,1.5 1.42,2.25 0.95,1.13 2.04,1.41 3.27,0.85 1.24,-0.56 1.95,-1.41 2.14,-2.55 -0.19,-1.12 -0.38,-2.16 -0.57,-3.1 -0.19,-0.94 -0.85,-1.5 -1.99,-1.69 z m -5.98,-218.6 h 0.86 v -0.85 h -0.86 z m 0.86,180.76 c 1.51,-1.51 1.99,-3.21 1.42,-5.09 -0.57,-0.75 -1.19,-1.51 -1.85,-2.26 -0.67,-0.76 -1.48,-1.13 -2.42,-1.13 -1.33,-0.19 -1.95,0.14 -1.85,0.99 0.09,0.84 -0.33,1.17 -1.28,0.99 0.38,0.94 0.52,1.88 0.42,2.82 -0.09,0.94 0.15,1.69 0.72,2.26 1.71,1.69 3.32,2.17 4.84,1.42 z m -4.56,-84.74 c 1.33,0.38 1.99,0.19 1.99,-0.56 0,-1.88 -0.66,-2.92 -1.99,-3.1 0,0.37 -0.19,0.88 -0.57,1.55 -0.38,0.66 -0.19,1.36 0.57,2.11 z m -10.53,148.28 c 0.38,-0.76 0.28,-1.27 -0.28,-1.56 -0.58,-0.28 -0.67,-0.52 -0.29,-0.7 -0.38,0 -0.76,-0.24 -1.14,-0.7 -0.38,-0.48 -0.66,-0.43 -0.85,0.13 l -1.15,-0.84 c -1.32,0.93 -1.99,1.88 -1.99,2.82 0.38,0.38 0.52,0.94 0.43,1.7 -0.1,0.75 0.24,1.31 1,1.69 1.13,0.19 2.13,0.14 2.99,-0.14 0.85,-0.28 1.28,-1.09 1.28,-2.4 z m 2.56,-143.47 c 0.57,0.93 1.57,1.41 2.99,1.41 1.42,0 2.13,-0.66 2.13,-1.98 0.76,-1.88 0.29,-3.67 -1.42,-5.36 -0.38,0 -0.95,-0.29 -1.71,-0.85 -0.76,-0.57 -1.42,-0.38 -1.99,0.56 -1.52,1.88 -1.52,3.95 0,6.22 z m 0,157.87 c -0.57,-0.94 -1,-1.22 -1.28,-0.84 -0.28,0.37 -0.71,0.09 -1.28,-0.85 0,1.5 -0.38,2.16 -1.14,1.98 -0.76,-0.19 -1.14,0.28 -1.14,1.41 -0.57,0.56 -0.52,1.36 0.14,2.39 0.66,1.04 1,1.84 1,2.41 l -0.86,2.54 1.14,-1.41 c 0.38,1.5 1.52,2.44 3.42,2.82 0.76,0 1.47,-0.05 2.14,-0.14 0.66,-0.09 1.18,-0.52 1.56,-1.27 0.76,-1.88 0.62,-3.63 -0.43,-5.22 -1.04,-1.6 -1.56,-3.44 -1.56,-5.51 -0.2,-0.19 -0.53,-0.19 -1,0 -0.48,0.19 -0.62,0.56 -0.43,1.13 z m 1.14,-9.6 -0.86,-0.29 1.14,1.42 z m -46.98,104.5 c 0,0.56 -0.09,1.08 -0.28,1.55 -0.19,0.47 -0.1,0.99 0.28,1.55 0.57,-1.12 0.57,-2.16 0,-3.1 z m -0.57,-263.79 c 0,0.75 -0.04,1.55 -0.14,2.4 -0.1,0.85 -0.14,1.74 -0.14,2.69 0.19,-0.95 0.28,-1.84 0.28,-2.69 0,-0.85 0,-1.65 0,-2.4 z m 1.14,79.64 0.57,-0.56 v -0.85 z m 0,169.46 c 0.76,0.38 1.47,0.33 2.14,-0.14 0.66,-0.47 0.99,-1.08 0.99,-1.84 -0.94,-0.75 -1.99,-1.12 -3.13,-1.12 -0.76,0.37 -1.09,0.84 -1,1.41 0.1,0.56 0.43,1.13 1,1.69 z m 27.9,-96.59 c 0,0.38 -0.19,0.75 -0.57,1.13 0.38,0 0.57,-0.38 0.57,-1.13 z m -29.04,114.95 h 0.57 v -0.28 z m 23.34,-30.51 v 0.57 c -0.37,1.13 -0.65,2.17 -0.85,3.11 -0.19,0.94 -0.37,1.88 -0.56,2.82 z m 5.99,-86.13 c -0.19,0.18 -0.29,0.47 -0.29,0.84 0,0.38 0,0.66 0,0.85 0,-0.19 0.05,-0.47 0.14,-0.85 0.1,-0.37 0.15,-0.66 0.15,-0.84 z m -13.67,-120.89 v 1.14 h 0.28 v -1.14 z m 6.27,213.8 c -0.38,0.76 -0.81,1.79 -1.29,3.11 -0.47,1.32 -0.52,2.73 -0.14,4.24 0.19,-1.32 0.52,-2.49 1,-3.53 0.47,-1.04 0.62,-2.31 0.43,-3.82 z m 1.41,-57.33 c -0.56,0.38 -0.8,0.76 -0.7,1.13 0.09,0.38 -0.05,0.85 -0.43,1.41 z m -22.2,75.97 c -0.38,0.19 -0.57,0.67 -0.57,1.42 0.38,-0.19 0.57,-0.67 0.57,-1.42 z m -2.84,15.82 c 0.75,-1.7 1.18,-3.3 1.28,-4.8 0.09,-1.51 0.23,-3.2 0.42,-5.09 -0.38,1.7 -0.61,3.35 -0.71,4.95 -0.09,1.6 -0.43,3.24 -0.99,4.94 z m 94.23,-362.35 c 0,-1.51 0.19,-2.73 0.57,-3.68 h -0.57 l -0.57,3.68 z m -59.21,383.25 c 0.18,0 0.37,-0.09 0.56,-0.29 0,0 -0.19,0.1 -0.56,0.29 z m -25.06,-122.57 c 1.14,-1.51 1.52,-3.2 1.14,-5.09 -0.19,0.75 -0.43,1.6 -0.72,2.55 -0.28,0.94 -0.42,1.79 -0.42,2.54 z m -1.42,52.81 -0.58,5.65 1.15,-3.11 z m 28.47,66.94 c -0.2,0 -0.33,0.28 -0.43,0.84 -0.1,0.57 -0.43,1.13 -1,1.69 0.95,-0.93 1.43,-1.78 1.43,-2.53 z m -8.55,-135.85 c 0.76,-0.75 1.19,-1.74 1.28,-2.96 0.1,-1.23 0.24,-2.32 0.43,-3.25 -0.37,0.93 -0.76,1.97 -1.14,3.1 -0.38,1.13 -0.57,2.17 -0.57,3.11 z m 5.41,-136.42 c -0.19,1.52 -0.52,2.97 -1,4.39 -0.47,1.41 -0.61,2.96 -0.42,4.65 0.57,-1.5 0.9,-2.96 0.99,-4.38 0.1,-1.41 0.24,-2.96 0.43,-4.66 z m -1.71,-3.1 c 0.77,0.38 1.34,0.09 1.71,-0.85 -0.19,-0.56 -0.33,-1.13 -0.43,-1.69 -0.09,-0.57 -0.51,-0.94 -1.28,-1.13 0,0.37 -0.14,0.98 -0.42,1.83 -0.29,0.85 -0.15,1.46 0.42,1.84 z m -2.27,227.64 c 0,1.32 0.66,2.16 1.99,2.54 0,-0.57 -0.19,-1.13 -0.57,-1.7 -0.38,-0.56 -0.85,-0.84 -1.42,-0.84 z m 9.96,-11.86 c -0.19,0.18 -0.47,0.37 -0.85,0.56 -0.38,0.19 -0.66,0.09 -0.86,-0.29 -1.52,1.89 -2.27,3.49 -2.27,4.81 0.75,0.94 1.42,1.69 1.99,2.26 0.57,0.56 0.76,1.41 0.57,2.54 0.95,-0.19 1.57,-0.61 1.85,-1.27 0.29,-0.66 0.9,-0.99 1.85,-0.99 0.57,-0.75 1.05,-1.65 1.42,-2.68 0.38,-1.04 0.19,-2.03 -0.56,-2.97 -0.96,-0.37 -1.43,-0.85 -1.43,-1.41 0,-0.56 -0.38,-0.66 -1.14,-0.29 z m 199.29,-267.18 c -0.76,0.75 -1.14,1.7 -1.14,2.82 0.76,-1.5 1.14,-2.45 1.14,-2.82 z m -8.25,85.57 0.27,-4.8 z m 3.41,133.87 1.14,-1.12 z m -2.28,-216.34 h 0.29 v -0.85 z m 11.39,194.31 -1.14,1.42 1.14,-1.13 z m 0.86,-118.9 -0.29,4.52 0.29,-1.98 z m -0.86,-117.21 c 0.38,0 0.76,-0.32 1.14,-0.98 0.38,-0.66 0.76,-0.71 1.14,-0.14 l -0.85,-1.7 z m -12.52,313.5 c -0.2,-0.37 -0.53,-0.33 -1.01,0.14 -0.47,0.47 -0.61,0.99 -0.42,1.56 0.19,0 0.47,-0.15 0.85,-0.43 0.38,-0.28 0.58,-0.52 0.58,-0.71 z m 9.39,-46.04 c -1.14,0.38 -1.71,0.76 -1.71,1.13 z m 0.56,-272.82 1.15,-1.98 z m -1.41,43.49 0.85,-0.56 v -0.28 z M 2918,1297.63 c 0.95,-0.38 1.52,-0.99 1.7,-1.84 0.19,-0.85 0.29,-1.55 0.29,-2.12 -0.58,0.38 -1.04,0.95 -1.43,1.7 -0.37,0.75 -0.56,1.51 -0.56,2.26 z m 2.84,223.67 c 0.38,-1.12 0.95,-2.02 1.71,-2.67 0.76,-0.67 1.33,-1.65 1.71,-2.97 l -3.99,4.8 z m -111.31,58.75 0.85,-0.85 v -0.28 z m 109.32,-148.84 c -1.52,1.32 -2.28,2.83 -2.28,4.52 z m -0.57,134.44 c -0.57,0.56 -1.09,0.99 -1.57,1.27 -0.47,0.28 -0.9,0.99 -1.28,2.12 0.95,-1.51 1.9,-2.64 2.85,-3.39 z m 41.56,-26.83 c 0.39,1.13 0.34,2.58 -0.14,4.38 -0.47,1.78 -0.51,3.15 -0.14,4.09 0.38,-1.13 0.53,-2.4 0.43,-3.81 -0.1,-1.42 0.14,-2.87 0.71,-4.38 -0.38,-0.19 -0.57,-0.42 -0.57,-0.71 0,-0.27 -0.09,-0.14 -0.29,0.43 z m -40.43,-192.62 0.86,-1.69 v -0.57 z m 18.23,249.1 -0.57,0.57 c -0.38,0.38 -0.57,0.75 -0.57,1.13 z m 1.14,-162.96 v -1.13 z m 0,-107.88 v -1.98 z m -11.96,187.53 v -0.29 l -0.57,1.7 z m 10.82,17.23 1.42,-1.7 v -0.84 z m 3.7,-128.79 1.14,-1.7 z m 60.64,-59.03 c 0.76,-0.38 1.19,-0.76 1.29,-1.13 0.09,-0.38 0.14,-0.84 0.14,-1.41 -0.2,0.57 -0.48,0.99 -0.86,1.27 -0.38,0.29 -0.57,0.71 -0.57,1.27 z m 2.56,-3.67 c -0.37,0 -0.57,0.09 -0.57,0.28 0,0.19 -0.18,0.47 -0.56,0.85 0.38,-0.38 0.56,-0.66 0.56,-0.85 0,-0.19 0.2,-0.28 0.57,-0.28 z m -1.13,138.39 c -0.39,0.37 -0.72,0.76 -1,1.13 -0.29,0.38 -0.62,0.85 -1,1.41 0.38,-0.56 0.71,-0.99 1,-1.27 0.28,-0.28 0.61,-0.7 1,-1.27 z m -0.29,16.38 c -0.76,0.94 -1.47,1.65 -2.14,2.12 -0.66,0.47 -1.28,1.18 -1.85,2.11 1.14,-0.37 1.95,-0.93 2.42,-1.69 0.48,-0.75 1,-1.6 1.57,-2.54 z m 37.29,-93.2 c 0.39,-0.19 0.77,-0.24 1.14,-0.14 0.38,0.09 0.38,-0.05 0,-0.43 0,0.19 -0.09,0.29 -0.28,0.29 -0.38,0 -0.67,0.09 -0.86,0.28 z m -44.98,104.22 c 0.76,-0.57 1.28,-1.18 1.57,-1.84 0.29,-0.66 0.8,-1.27 1.57,-1.84 -0.77,0.57 -1.43,1.13 -2,1.7 -0.57,0.57 -0.95,1.22 -1.14,1.98 z m 46.69,-177.65 c 2.09,-1.51 3.37,-3.25 3.85,-5.23 0.47,-1.98 1.09,-3.81 1.85,-5.5 -1.33,1.5 -2.85,3.15 -4.55,4.94 -1.72,1.79 -2.09,3.72 -1.15,5.79 z m -1.71,73.71 v -0.28 z m -23.34,167.2 1.99,-2.26 -2.56,1.98 z m 18.51,-183.86 c 0.75,-0.38 1.28,-0.94 1.56,-1.7 0.29,-0.75 0.47,-1.5 0.57,-2.25 0.1,-0.76 0.29,-1.51 0.57,-2.27 0.29,-0.75 0.9,-1.41 1.85,-1.97 0,-0.94 0,-1.41 0,-1.41 -0.76,1.13 -1.51,2.35 -2.27,3.66 -0.77,1.33 -1.62,2.45 -2.57,3.4 -0.76,0.75 -1.19,1.46 -1.28,2.11 -0.1,0.66 -0.14,1.37 -0.14,2.12 0.94,0.19 1.28,0.05 1,-0.42 -0.29,-0.47 -0.06,-0.71 0.71,-0.71 0,0 -0.1,-0.09 -0.29,-0.28 z m 3.41,18.92 c -1.33,0.38 -2.8,1.23 -4.41,2.54 -1.62,1.32 -2.8,2.92 -3.56,4.8 -0.57,1.32 -1.47,2.6 -2.71,3.82 -1.22,1.22 -2.46,2.4 -3.69,3.52 -1.24,1.14 -2.23,2.36 -2.99,3.68 -0.77,1.32 -0.86,2.82 -0.29,4.52 1.9,-1.13 3.37,-2.59 4.41,-4.38 1.05,-1.79 2,-3.63 2.85,-5.51 0.85,-1.88 1.85,-3.67 2.99,-5.37 1.14,-1.69 2.85,-3.01 5.12,-3.95 z m -38.72,77.95 c 0.19,-0.75 0.57,-1.13 1.14,-1.13 -0.19,0 -0.38,0.09 -0.57,0.28 -0.38,0.38 -0.57,0.66 -0.57,0.85 z m -33.31,-147.71 1.14,-1.13 v -0.56 z m -1.7,237.52 -0.58,0.85 h 0.29 z m -0.29,-175.67 1.99,-4.52 -0.57,0.85 z m 19.64,121.16 1.14,-1.12 v -0.57 z m 0.86,-49.7 v -1.13 z m -0.86,62.41 c -0.18,-0.18 -0.18,-0.28 0,-0.28 l -0.28,-0.84 -0.85,2.54 c 0.18,0.37 0.37,0.28 0.57,-0.29 0.18,-0.56 0.38,-0.94 0.56,-1.13 z m -63.2,-78.23 2.28,-3.95 z m -67.75,156.75 c 0.37,0 0.75,-0.24 1.13,-0.71 0.39,-0.47 0.76,-0.79 1.14,-0.98 l -0.57,-0.29 z m -7.7,-24.01 c -0.37,0.19 -0.75,0.66 -1.13,1.41 z m -5.68,37.57 c 2.85,-2.08 5.17,-4.1 6.97,-6.08 1.8,-1.97 3.94,-4.19 6.41,-6.63 -1.34,0.94 -2.52,2.02 -3.57,3.24 -1.04,1.23 -2.32,2.31 -3.84,3.25 z m 5.68,-37.57 c 0.2,-0.38 0.43,-0.7 0.72,-0.99 0.28,-0.28 0.24,-0.61 -0.14,-0.98 z m -5.68,50.84 c 0.76,-0.38 1.13,-0.8 1.13,-1.27 0,-0.47 0.1,-1.08 0.29,-1.84 l -1.72,2.82 z m -0.3,-49.14 h 0.3 v -1.41 h -0.3 z m 1.72,-78.24 1.14,-1.13 v -0.28 z m -27.62,85.58 -0.57,0.85 0.57,-0.57 z m 0.28,-123.42 c 0,0.37 -0.23,0.75 -0.7,1.13 -0.48,0.37 -0.53,0.85 -0.15,1.41 z m 12.53,200.24 v -0.56 l -0.28,0.56 z m 91.39,-78.23 -1.71,2.26 1.43,-1.7 z m -101.07,-177.08 c 0,0.37 -0.23,0.84 -0.71,1.41 -0.47,0.56 -0.52,1.22 -0.14,1.98 0.57,-1.14 0.85,-2.27 0.85,-3.39 z m 4.56,109.86 v -1.13 z m 1.42,14.69 c -0.56,0.75 -0.9,1.45 -0.99,2.11 -0.1,0.66 -0.24,1.18 -0.43,1.56 0.38,-0.38 0.62,-0.9 0.71,-1.56 0.09,-0.66 0.33,-1.36 0.71,-2.11 z m 0.57,33.89 0.28,-1.7 -1.41,3.39 z m 78.01,-186.4 0.28,-0.57 v -1.13 z m 1.71,105.62 c 0,0.38 -0.19,0.57 -0.57,0.57 h 0.28 c 0.19,-0.19 0.29,-0.38 0.29,-0.57 z m -1.71,3.68 c 0.76,-1.14 1.14,-2.17 1.14,-3.11 -0.38,0.37 -0.76,0.75 -1.14,1.13 -0.38,0.37 -0.38,1.03 0,1.98 z m -14.23,114.66 c 1.89,-0.94 3.12,-2.35 3.69,-4.23 -0.38,0.75 -0.85,1.27 -1.42,1.55 -0.57,0.28 -1.14,0.89 -1.7,1.84 h 0.28 z m 29.03,1.98 c -1.32,0.19 -2.13,0.75 -2.42,1.69 -0.28,0.94 -0.81,1.88 -1.56,2.83 -1.14,0.94 -2.33,1.98 -3.56,3.1 -1.24,1.13 -2.05,2.64 -2.42,4.52 2.46,-1.32 4.32,-3.06 5.55,-5.22 1.23,-2.17 2.8,-4.1 4.7,-5.8 z m -61.21,50.55 c 0.95,-0.57 1.61,-0.99 2,-1.27 0.37,-0.28 0.85,-0.71 1.42,-1.27 z m 51.25,-181.32 0.57,-1.69 v -1.13 z m 7.97,-148.27 h -0.57 v 0.28 z m -2.85,5.93 c 0.95,-0.94 1.43,-2.16 1.43,-3.67 l 0.85,-1.98 c -0.38,0.94 -0.9,1.88 -1.56,2.83 -0.67,0.94 -0.91,1.88 -0.72,2.82 z m -46.4,140.65 c 0.95,-0.38 1.71,-1.04 2.28,-1.98 0.57,-0.94 1.04,-1.88 1.42,-2.82 0.95,-1.51 1.47,-2.92 1.56,-4.24 0.1,-1.32 0.81,-2.54 2.14,-3.67 v -1.41 c -0.76,0 -1.14,0.42 -1.14,1.27 0,0.85 -0.29,1.65 -0.86,2.4 -0.94,1.7 -2.13,3.34 -3.55,4.95 -1.43,1.59 -2.04,3.43 -1.85,5.5 z m 7.97,49.42 1.43,-1.69 v -1.13 z m -13.67,-44.05 c 0,-0.19 0.1,-0.29 0.29,-0.29 0.19,0 0.29,-0.09 0.29,-0.28 h -0.58 z m 16.8,22.3 0.57,-1.41 -1.42,2.55 z m 9.68,22.04 2,-3.11 v -1.13 z m -1.71,20.33 c 0.19,-0.75 0.53,-1.32 1,-1.69 0.48,-0.38 0.9,-0.94 1.28,-1.7 -0.38,0.38 -0.85,0.85 -1.43,1.41 -0.56,0.57 -0.85,1.23 -0.85,1.98 z m 3.14,-5.93 0.85,-0.56 v -0.85 z m -5.7,26.83 2.56,-3.67 -1.14,1.13 z m 0,25.98 c 0.57,0 1,-0.14 1.28,-0.42 0.29,-0.28 0.71,-0.71 1.28,-1.27 v -0.29 c -0.95,0 -1.56,0.24 -1.85,0.72 -0.28,0.46 -0.71,0.89 -1.28,1.26 -1.32,0.95 -2.47,2.02 -3.41,3.25 -0.95,1.22 -1.52,2.59 -1.72,4.1 1.33,-0.57 2.38,-1.56 3.14,-2.97 0.76,-1.41 1.61,-2.87 2.56,-4.38 z m 10.25,7.91 c 0,0.38 -0.14,0.66 -0.43,0.85 -0.28,0.19 -0.43,0.37 -0.43,0.57 0,-0.2 0.15,-0.38 0.43,-0.57 0.29,-0.19 0.43,-0.47 0.43,-0.85 z m -279.86,74.56 h -0.28 v 0.85 l 0.28,-0.28 v -0.29 z m -5.41,-83.6 h 0.29 v -1.4 h -0.29 z m 21.36,-134.71 c -0.19,0.93 -0.29,1.65 -0.29,2.12 0,0.47 0,1.27 0,2.4 z m -0.29,4.8 c -0.19,0.75 -0.28,1.74 -0.28,2.96 0,1.23 0.09,2.31 0.28,3.25 0,-0.94 0.1,-1.93 0.29,-2.96 0.18,-1.04 0.09,-2.12 -0.29,-3.25 z m -1.14,176.23 c 0,-0.94 -0.09,-1.41 -0.28,-1.41 h -0.57 c 0,0.94 0.28,2.07 0.85,3.39 0.57,1.32 0.86,2.54 0.86,3.67 0.38,0.57 0.8,1.04 1.28,1.41 0.47,0.38 0.61,0.94 0.42,1.7 0.19,-0.19 0.33,-0.47 0.43,-0.85 0.1,-0.38 -0.04,-0.66 -0.43,-0.85 -0.95,-0.75 -1.52,-1.83 -1.7,-3.25 -0.19,-1.41 -0.48,-2.68 -0.86,-3.81 z m -2.28,-351.06 h 0.29 v -1.41 h -0.29 z m 0,347.96 0.29,3.67 v -3.39 z m 4.84,-1.7 c 0.96,0.56 1.42,0.38 1.42,-0.56 0,-0.95 -0.37,-1.61 -1.13,-1.98 -0.57,0 -1.05,0.37 -1.42,1.13 0,0.94 0.37,1.41 1.13,1.41 z m 2.28,8.19 c 0,-0.94 0.14,-1.93 0.43,-2.97 0.28,-1.03 0.05,-2.02 -0.72,-2.96 -0.57,0.94 -0.66,1.93 -0.28,2.96 0.38,1.04 0.57,2.03 0.57,2.97 z m -17.93,-340.04 h 0.56 v -0.57 h -0.56 z m -0.29,241.75 c 0.19,0.2 0.29,0.2 0.29,0 v -0.56 h -0.29 z m 0,68.63 c 0.19,0 0.47,-0.18 0.85,-0.56 v -1.13 c -0.38,0 -0.56,-0.05 -0.56,-0.14 0,-0.09 -0.1,-0.14 -0.29,-0.14 0,0.19 -0.09,0.28 -0.28,0.28 0,0.57 -0.1,0.89 -0.29,0.99 -0.19,0.1 0,0.33 0.57,0.7 z m -1.42,42.37 c -0.19,0 0.18,-0.28 1.14,-0.85 -0.38,0 -0.67,-0.14 -0.86,-0.42 -0.19,-0.28 -0.37,-0.33 -0.57,-0.14 -0.95,0.56 -0.85,1.03 0.29,1.41 z m 9.1,22.03 h 0.58 v -1.41 h -0.58 z m 0.86,2.83 v -0.29 c 0,-0.19 -0.09,-0.28 -0.28,-0.28 v 1.13 h 0.28 z m -62.63,-5.93 c 0.57,0 0.99,-0.19 1.28,-0.57 0.28,-0.38 0.52,-0.66 0.71,-0.85 0,-0.94 -0.38,-1.69 -1.14,-2.26 -0.57,0 -0.99,0.14 -1.28,0.42 -0.28,0.29 -0.61,0.62 -0.99,0.99 -0.19,0.38 -0.1,0.85 0.28,1.42 0.38,0.56 0.76,0.85 1.14,0.85 z m 19.36,-124.84 h 0.85 l -0.85,-0.85 z m 8.82,96.87 c 0.76,0 1.14,-0.33 1.14,-0.99 0,-0.66 0.38,-0.99 1.14,-0.99 -0.19,-0.18 -0.61,-0.28 -1.28,-0.28 -0.67,0 -1.19,-0.18 -1.57,-0.57 -0.38,0 -0.57,0.1 -0.57,0.29 v 0.28 c 0,0.76 0,1.32 0,1.69 0,0.39 0.39,0.57 1.14,0.57 z m 1.42,-11.86 c -0.37,0.38 -0.37,0.71 0,0.99 0.39,0.28 0.67,0.24 0.86,-0.14 0,-0.19 0.05,-0.38 0.14,-0.57 0.1,-0.18 0.05,-0.47 -0.14,-0.84 -0.19,0.37 -0.38,0.47 -0.56,0.28 -0.2,-0.19 -0.3,-0.1 -0.3,0.28 z m -2.84,-22.03 c -0.38,0.38 -0.47,0.71 -0.29,0.99 0.2,0.28 0.39,0.23 0.57,-0.14 v -0.85 z m -2.56,-155.61 h 0.57 v -1.13 h -0.57 z m -22.21,222.26 c -0.38,0.38 -0.38,0.8 0,1.27 0.38,0.48 0.76,0.9 1.14,1.28 z m 2.56,-113.53 c -0.19,0.56 0,0.94 0.58,1.13 0.56,0.18 0.85,0.09 0.85,-0.28 0,-0.75 -0.1,-1.13 -0.29,-1.13 -0.38,-0.38 -0.61,-0.47 -0.71,-0.29 -0.09,0.19 -0.24,0.38 -0.43,0.57 z m 68.9,-77.1 h 0.28 v -1.13 h -0.28 z m -62.63,161.26 -0.29,-1.69 c 0,0.38 0.05,0.66 0.15,0.84 0.09,0.2 0.14,0.47 0.14,0.85 z m 2.85,-186.12 h 0.56 v -0.84 z m 0,-1.69 h 0.56 v -1.42 h -0.56 z m -4.56,183.01 c 0,1.5 0.47,2.54 1.42,3.11 z m 35.87,-40.39 c 0.19,0 0.29,-0.14 0.29,-0.42 0,-0.28 -0.1,-0.42 -0.29,-0.42 z m 0,0 c 0,0 0.09,0.19 0.29,0.57 z m 27.04,46.89 c -1.51,0 -2.09,0.75 -1.7,2.25 0.57,0.19 1.13,0.24 1.7,0.15 0.58,-0.1 0.67,-0.52 0.29,-1.27 0,-0.2 -0.09,-0.57 -0.29,-1.13 z m -38.71,-14.97 c -0.19,-0.19 -0.29,-0.19 -0.29,0 0,0.19 0.1,0.37 0.29,0.56 z m 5.98,-302.48 0.28,1.69 v -1.69 z m -1.43,285.53 c 0.95,0.38 1.52,0.99 1.71,1.84 0.19,0.85 0.47,1.74 0.85,2.68 -0.18,-3.01 -0.71,-5.51 -1.56,-7.48 -0.85,-1.98 -1.66,-4.29 -2.42,-6.92 l -0.57,-0.57 -0.57,-0.56 c 0.19,2.07 0.85,3.95 1.99,5.65 1.14,1.69 1.33,3.48 0.57,5.36 z m -4.84,1.41 c 0.19,0.38 0.39,0.67 0.58,0.85 0.18,0.19 0.28,0.19 0.28,0 v -0.85 z m -0.85,-275.36 c 0,-0.94 0.09,-1.93 0.28,-2.97 0.2,-1.03 -0.09,-1.84 -0.85,-2.4 0.19,0.94 0.28,1.89 0.28,2.83 0,0.94 0.1,1.79 0.29,2.54 z m 107.33,335.24 c 0,-0.95 -0.1,-1.41 -0.28,-1.41 z m 0,0.28 v -0.28 z m -10.25,-40.95 v -0.28 z m 0,-0.28 0.29,-0.57 -0.29,-0.56 z m -3.42,41.8 c -0.56,0 -0.8,0.19 -0.71,0.56 0.1,0.38 0.15,0.66 0.15,0.85 z m 2,-70.33 c -0.38,-0.75 -0.43,-1.55 -0.15,-2.4 0.29,-0.84 0.34,-1.74 0.15,-2.68 l -0.86,5.08 z m 0,-6.78 c 0,-0.37 0.04,-0.66 0.14,-0.84 0.09,-0.19 0.14,-0.38 0.14,-0.57 h -0.28 z m 0,0.29 v -0.29 z m -0.86,-88.97 v -1.41 z m -0.57,-6.78 c -0.38,0.94 -0.42,1.84 -0.14,2.69 0.28,0.84 0.53,1.74 0.71,2.68 -0.18,-0.94 -0.14,-1.84 0.14,-2.68 0.29,-0.85 0.06,-1.75 -0.71,-2.69 z m 19.08,127.38 c 0.38,0 0.62,-0.04 0.71,-0.15 0.09,-0.09 0.33,-0.13 0.71,-0.13 -0.57,-0.76 -0.85,-1.14 -0.85,-1.14 -0.38,0.2 -0.57,0.67 -0.57,1.42 z m 1.99,21.18 h 0.29 v -1.42 z m 1.71,-331.57 h 0.85 v -1.13 z m -15.94,31.91 h 0.85 v -2.54 h -0.85 z m 0.85,323.1 v -0.84 z m 7.4,-113.25 -0.29,-0.85 v 2.54 z m -8.82,-249.1 h 0.28 v -1.41 h -0.28 z m 6.55,153.64 h 0.28 v -1.13 h -0.28 z m 1.13,49.42 h 0.29 v -1.41 h -0.29 z m -2.84,140.37 c 0.95,-1.89 1.47,-3.62 1.56,-5.23 0.1,-1.6 0.62,-3.43 1.57,-5.5 -0.19,-0.19 -0.24,-0.34 -0.14,-0.43 0.09,-0.09 0.04,-0.33 -0.15,-0.71 -0.57,1.7 -1.13,3.44 -1.7,5.23 -0.57,1.79 -1.24,3.53 -2,5.23 z m -1.71,-106.76 c 0.38,-0.94 0.52,-1.93 0.43,-2.97 -0.1,-1.03 0.04,-1.83 0.42,-2.39 l -0.85,-0.57 z m 1.71,66.66 v 2.25 z m -35.31,-201.94 0.29,-0.29 v -0.84 z m 0,-24.85 c 1.33,0 2.09,-0.48 2.28,-1.41 0.38,-0.57 0.38,-1.14 0,-1.7 -0.37,-0.57 -0.85,-1.13 -1.42,-1.69 -0.38,0 -0.86,0.04 -1.43,0.13 -0.56,0.1 -0.95,0.43 -1.13,0.99 0,0.76 0.04,1.46 0.14,2.12 0.1,0.66 0.62,1.18 1.56,1.56 z m 2.28,244.01 c 0.57,0.38 0.76,0.95 0.57,1.7 -0.19,0.75 0.1,1.32 0.85,1.69 0,-1.32 0.05,-2.68 0.15,-4.1 0.09,-1.41 -0.43,-2.49 -1.57,-3.24 l -0.28,2.54 -0.57,-0.85 c 0.38,0.56 0.48,1.13 0.29,1.7 -0.2,0.56 -0.1,1.03 0.28,1.41 0,-0.57 0.09,-0.85 0.28,-0.85 z m 0.85,-23.44 c -0.56,2.45 -0.66,4.94 -0.28,7.49 0.38,2.53 0.67,5.31 0.85,8.32 0,-2.63 0,-5.27 0,-7.9 0,-2.64 -0.18,-5.28 -0.57,-7.91 z m -2.27,-132.46 c -0.38,0.38 -0.47,0.9 -0.29,1.56 0.19,0.65 0.48,1.36 0.86,2.12 0,-0.76 -0.1,-1.41 -0.28,-1.98 -0.2,-0.57 -0.29,-1.13 -0.29,-1.7 z m 2.27,-43.78 h 0.29 v -0.84 h -0.29 z m -4.55,190.08 c 0,-0.19 -0.04,-0.28 -0.14,-0.28 -0.1,0 -0.14,-0.09 -0.14,-0.29 v -0.28 c -0.38,0.19 -0.48,0.48 -0.29,0.85 0.19,0.38 0.38,0.66 0.57,0.84 z m 4.55,-18.93 c 0,-0.75 0,-1.12 0,-1.12 -0.56,0 -0.8,0.23 -0.71,0.7 0.1,0.47 0.34,0.62 0.71,0.42 z m -27.04,-287.5 v -1.14 z M 2637,1595.3 h 0.86 l -0.29,-0.56 z m 0.57,-272.82 c -0.57,0.37 -0.8,0.61 -0.71,0.7 0.09,0.1 0.33,0.14 0.71,0.14 z m 3.7,210.98 c 0.38,1.31 0.43,2.67 0.14,4.09 -0.28,1.41 -0.14,2.87 0.43,4.38 v -8.47 z m 1.43,-26.56 c -0.2,0.19 -0.2,0.39 0,0.57 0.18,0.19 0.28,0.46 0.28,0.85 h 0.86 v -1.42 z m -2.28,-149.4 c 0.75,-1.5 0.75,-3.06 0,-4.66 -0.76,-1.61 -1.05,-3.15 -0.86,-4.66 0.39,-0.19 0.43,-0.38 0.15,-0.56 -0.29,-0.19 -0.52,-0.29 -0.72,-0.29 0.2,1.51 0.33,3.21 0.43,5.08 0.1,1.89 0.43,3.59 1,5.09 z m -2.56,44.9 h 0.28 v -0.56 h -0.28 z m 41.56,258.99 v -0.28 z m -1.71,-255.31 1.15,-5.37 h -0.58 z m 1.71,-148 c 0.19,0 0.38,-0.09 0.57,-0.28 0.19,-0.18 0.1,-0.37 -0.28,-0.57 l -0.29,-0.84 z m 0.29,130.21 -0.29,3.39 z m -7.69,31.91 c 0,0.75 0,1.51 0,2.25 0,0.76 0.19,1.42 0.57,1.98 z m -0.86,206.73 h 0.29 v -1.41 h -0.29 z m -2.85,-33.32 v -1.41 z m 6.55,89.25 c 0,0.37 0.15,0.46 0.43,0.28 0.29,-0.19 0.43,-0.48 0.43,-0.85 v -0.28 h -0.86 z m -6.55,-62.98 h -0.56 v 1.97 h 0.56 z m -2.27,62.98 c 0,0.56 0.19,1.08 0.57,1.55 0.38,0.47 0.76,0.33 1.14,-0.43 0,-0.37 -0.05,-0.75 -0.15,-1.12 -0.09,-0.38 -0.42,-0.57 -0.99,-0.57 -0.19,0 -0.29,0.1 -0.29,0.28 0,0.19 -0.09,0.29 -0.28,0.29 z m 7.97,-88.12 c 0.38,0.19 0.71,0.19 1,0 0.28,-0.19 0.24,-0.57 -0.15,-1.13 -0.37,-0.38 -0.37,-1.13 0,-2.26 0.39,-1.13 -0.09,-1.51 -1.42,-1.13 -0.76,1.89 -0.56,3.39 0.57,4.52"
         style="fill:#f1fb76;fill-opacity:1;fill-rule:nonzero;stroke:none"
         id="path62"
         inkscape:export-filename="../../Documents/SprayPaint/pink-1-straight.svg"
         inkscape:export-xdpi="500"
         inkscape:export-ydpi="500" />
    </g>
  </g>
</svg>
