<?xml version="1.0" encoding="UTF-8" standalone="no"?>
<!-- Created with Inkscape (http://www.inkscape.org/) -->

<svg
   version="1.1"
   id="svg132"
   width="6666.6665"
   height="6666.6665"
   viewBox="0 0 6666.6665 6666.6665"
   sodipodi:docname="vecteezy_impossible-triangle-sacred-geometry-figures-optical_.eps"
   xml:space="preserve"
   xmlns:inkscape="http://www.inkscape.org/namespaces/inkscape"
   xmlns:sodipodi="http://sodipodi.sourceforge.net/DTD/sodipodi-0.dtd"
   xmlns="http://www.w3.org/2000/svg"
   xmlns:svg="http://www.w3.org/2000/svg"><defs
     id="defs136" /><sodipodi:namedview
     id="namedview134"
     pagecolor="#ffffff"
     bordercolor="#000000"
     borderopacity="0.25"
     inkscape:showpageshadow="2"
     inkscape:pageopacity="0.0"
     inkscape:pagecheckerboard="0"
     inkscape:deskcolor="#d1d1d1"
     showgrid="false"
     showguides="false" /><g
     id="g553"
     transform="matrix(0.13333333,0,0,-0.13333333,-7.8183593e-6,6666.6665)"><path
       d="M 31681.6,48119.5 41704,31253.6 24409,1866.7 5677.75,33519 l 5027.65,8310.8 2458.1,-4352.7 -2417.3,-4194.7 6409.5,-10432.8 1311.3,2310 3450.9,6078.9 4878.5,23.3 -7263.7,-12413.9 4836.8,-8698 1408.2,2409.4 10959,18749.9 -3622.8,6270.4 -1302.1,2253.7 -3674.7,-6356.2 -2504.4,4150.2 z"
       style="fill:none;stroke:#000000;stroke-width:400;stroke-linecap:round;stroke-linejoin:round;stroke-miterlimit:10;stroke-dasharray:none;stroke-opacity:1"
       id="path561" /><path
       d="m 10746.2,33282.4 2698,12.9 5022.8,-8135.7 -1311.3,-2310 z"
       style="fill:none;stroke:#000000;stroke-width:400;stroke-linecap:round;stroke-linejoin:round;stroke-miterlimit:10;stroke-dasharray:none;stroke-opacity:1"
       id="path563" /><path
       d="m 10705.4,41829.8 9935.6,47.4 2554.5,-4261.6 2437.2,11.7 2504.4,-4150.2 v 0 l -7279.1,-146.4 -2725,4170.1 -4969.5,-23.7 z"
       style="fill:none;stroke:#000000;stroke-width:400;stroke-linecap:round;stroke-linejoin:round;stroke-miterlimit:10;stroke-dasharray:none;stroke-opacity:1"
       id="path565" /><path
       d="m 19532.7,18847.9 2700.6,12.9 3544.4,-6301.5 -1408.2,-2409.4 z"
       style="fill:none;stroke:#000000;stroke-width:400;stroke-linecap:round;stroke-linejoin:round;stroke-miterlimit:10;stroke-dasharray:none;stroke-opacity:1"
       id="path567" /><path
       d="m 31811.8,39833.3 1302.1,-2253.7 -10880.6,-18718.8 -2700.6,-12.9 7263.7,12413.9 -7322.8,-34.9 1384.4,2103.8 7279.1,146.4 v 0 z"
       style="fill:none;stroke:#000000;stroke-width:400;stroke-linecap:round;stroke-linejoin:round;stroke-miterlimit:10;stroke-dasharray:none;stroke-opacity:1"
       id="path569" /><path
       d="m 18133,37500.8 2725,-4170.1 -1384.4,-2103.8 -2378.2,4443.8 z"
       style="fill:none;stroke:#000000;stroke-width:400;stroke-linecap:round;stroke-linejoin:round;stroke-miterlimit:10;stroke-dasharray:none;stroke-opacity:1"
       id="path571" /><path
       d="m 13163.5,37477.1 4969.5,23.7 -1037.6,-1830.1 -2619.5,-12.5 -1031.7,-2362.9 -2698,-12.9 z"
       style="fill:none;stroke:#000000;stroke-width:400;stroke-linecap:round;stroke-linejoin:round;stroke-miterlimit:10;stroke-dasharray:none;stroke-opacity:1"
       id="path573" /></g></svg>
