<?xml version="1.0" encoding="UTF-8" standalone="no"?>
<!-- Created with Inkscape (http://www.inkscape.org/) -->

<svg
   version="1.1"
   id="svg132"
   width="6666.6665"
   height="6666.6665"
   xmlns="http://www.w3.org/2000/svg"
   xmlns:svg="http://www.w3.org/2000/svg">
  <defs
     id="defs136" />
  <g
     id="g140"
     transform="matrix(1.3333333,0,0,-1.3333333,0,6666.6667)">
    <g
       id="g142"
       transform="scale(0.1)">
      <path
         d="m 35950.8,34355.7 v 0 l -11913.7,153 2097,3609.9 3895.5,6706 11933.1,-249.8 z"
         style="fill:none;stroke:#000000;stroke-width:400;stroke-linecap:round;stroke-linejoin:round;stroke-miterlimit:10;stroke-dasharray:none;stroke-opacity:1"
         id="path146" />
      <path
         d="m 35950.8,34355.7 v 0 l 6011.9,10219.1 5977.6,-10541.4 -5931.7,-10378.3 z"
         style="fill:none;stroke:#000000;stroke-width:400;stroke-linecap:round;stroke-linejoin:round;stroke-miterlimit:10;stroke-dasharray:none;stroke-opacity:1"
         id="path148" />
      <path
         d="m 42008.6,23655.1 -5912.5,166.8 1989.3,3356.7 -2966.8,5231.9 -6117.3,138.9 -1911.9,-3423.4 -3052.3,5382.7 11913.7,-153 z"
         style="fill:none;stroke:#000000;stroke-width:400;stroke-linecap:round;stroke-linejoin:round;stroke-miterlimit:10;stroke-dasharray:none;stroke-opacity:1"
         id="path150" />
      <path
         d="m 34999.6,21971.6 -3113.8,5491.1 3232.8,4947.8 2966.8,-5231.9 -1989.3,-3356.7 z"
         style="fill:none;stroke:#000000;stroke-width:400;stroke-linecap:round;stroke-linejoin:round;stroke-miterlimit:10;stroke-dasharray:none;stroke-opacity:1"
         id="path152" />
      <path
         d="m 31885.8,27462.7 -5833.4,-193.3 1037,1856.6 1911.9,3423.4 6117.3,-138.9 z"
         style="fill:none;stroke:#000000;stroke-width:400;stroke-linecap:round;stroke-linejoin:round;stroke-miterlimit:10;stroke-dasharray:none;stroke-opacity:1"
         id="path154" />
      <path
         d="m 34999.6,21971.6 -1887.1,-109.8 -2161.5,3785.4 -4001,39.4 -897.6,1582.8 5833.4,193.3 z"
         style="fill:none;stroke:#000000;stroke-width:400;stroke-linecap:round;stroke-linejoin:round;stroke-miterlimit:10;stroke-dasharray:none;stroke-opacity:1"
         id="path156" />
      <path
         d="m 30662.2,5090.6 -5830.1,10315.2 6118.9,10241.4 2161.5,-3785.4 3754.2,-6574.7 z"
         style="fill:none;stroke:#000000;stroke-width:400;stroke-linecap:round;stroke-linejoin:round;stroke-miterlimit:10;stroke-dasharray:none;stroke-opacity:1"
         id="path158" />
      <path
         d="m 24832.1,15405.8 -12279.6,156.5 3103.1,5017 1905.2,-3405 6014.3,-59.3 3189.9,5221.4 -2001.5,3371.8 2186.5,-21.6 4001,-39.4 z"
         style="fill:none;stroke:#000000;stroke-width:400;stroke-linecap:round;stroke-linejoin:round;stroke-miterlimit:10;stroke-dasharray:none;stroke-opacity:1"
         id="path160" />
      <path
         d="m 30662.2,5090.6 -12117.7,119.5 -5992,10352.2 v 0 l 12279.6,-156.5 z"
         style="fill:none;stroke:#000000;stroke-width:400;stroke-linecap:round;stroke-linejoin:round;stroke-miterlimit:10;stroke-dasharray:none;stroke-opacity:1"
         id="path162" />
      <path
         d="m 23575.1,17115 -6014.3,59.3 -1905.2,3405 -1050.2,1877.2 6312.3,-62.3 z"
         style="fill:none;stroke:#000000;stroke-width:400;stroke-linecap:round;stroke-linejoin:round;stroke-miterlimit:10;stroke-dasharray:none;stroke-opacity:1"
         id="path164" />
      <path
         d="m 23575.1,17115 -2657.4,5279.2 2760.2,5142.7 1085.6,-1828.7 2001.5,-3371.8 z"
         style="fill:none;stroke:#000000;stroke-width:400;stroke-linecap:round;stroke-linejoin:round;stroke-miterlimit:10;stroke-dasharray:none;stroke-opacity:1"
         id="path166" />
      <path
         d="m 20917.7,22394.2 -6312.3,62.3 751,1487.1 4326.2,-35 2169.9,3646.3 1825.4,-18 z"
         style="fill:none;stroke:#000000;stroke-width:400;stroke-linecap:round;stroke-linejoin:round;stroke-miterlimit:10;stroke-dasharray:none;stroke-opacity:1"
         id="path168" />
      <path
         d="m 19682.6,23908.6 -4326.2,35 -7603.38,61.5 -5693.33,10490.4 11866.71,-182.2 v 0 z"
         style="fill:none;stroke:#000000;stroke-width:400;stroke-linecap:round;stroke-linejoin:round;stroke-miterlimit:10;stroke-dasharray:none;stroke-opacity:1"
         id="path170" />
      <path
         d="m 13926.4,34313.3 v 0 l -11866.71,182.2 6196.9,10413.9 11953.91,-12.8 z"
         style="fill:none;stroke:#000000;stroke-width:400;stroke-linecap:round;stroke-linejoin:round;stroke-miterlimit:10;stroke-dasharray:none;stroke-opacity:1"
         id="path172" />
      <path
         d="m 19682.6,23908.6 -5756.2,10404.7 6284.1,10583.3 2783.3,-5218.8 -3901.2,65.5 -3075.7,-5168.7 2909.2,-5383 3920.9,34.6 -994.5,-1671.3 z"
         style="fill:none;stroke:#000000;stroke-width:400;stroke-linecap:round;stroke-linejoin:round;stroke-miterlimit:10;stroke-dasharray:none;stroke-opacity:1"
         id="path174" />
      <path
         d="m 21916.4,34216.8 -5899.5,357.8 3075.7,5168.7 3901.2,-65.5 2150.6,-36.2 z"
         style="fill:none;stroke:#000000;stroke-width:400;stroke-linecap:round;stroke-linejoin:round;stroke-miterlimit:10;stroke-dasharray:none;stroke-opacity:1"
         id="path176" />
      <path
         d="m 24973.5,29244.9 -2126.5,-18.7 -3920.9,-34.6 -2909.2,5383 5899.5,-357.8 z"
         style="fill:none;stroke:#000000;stroke-width:400;stroke-linecap:round;stroke-linejoin:round;stroke-miterlimit:10;stroke-dasharray:none;stroke-opacity:1"
         id="path178" />
      <path
         d="m 24973.5,29244.9 -3057.1,4971.9 3228,5424.8 989.7,-1523 -2097,-3609.9 1985.3,-3501.1 z"
         style="fill:none;stroke:#000000;stroke-width:400;stroke-linecap:round;stroke-linejoin:round;stroke-miterlimit:10;stroke-dasharray:none;stroke-opacity:1"
         id="path180" />
    </g>
  </g>
</svg>
